<?xml version="1.0" encoding="utf-8"?>
<!-- Generator: Adobe Illustrator 16.0.4, SVG Export Plug-In . SVG Version: 6.00 Build 0)  -->
<!DOCTYPE svg PUBLIC "-//W3C//DTD SVG 1.1//EN" "http://www.w3.org/Graphics/SVG/1.1/DTD/svg11.dtd">
<svg version="1.1" id="Layer_1" xmlns="http://www.w3.org/2000/svg" xmlns:xlink="http://www.w3.org/1999/xlink" x="0px" y="0px"
	 width="32px" height="32px" viewBox="0 0 32 32" enable-background="new 0 0 32 32" xml:space="preserve">
<path d="M18.737,18.999l8.738-8.738l4.202,4.201L22.938,23.2L18.737,18.999z M17.982,22.014l-0.647,2.59l2.588-0.648L17.982,22.014z
	 M23.129,24.456l1.911-1.911v8.809H0.323V9.136l7.919-8.361h16.797v10.474l-1.911,1.911V2.686H9.455v7.221H2.234v19.536h20.895
	V24.456z M4.035,7.997h3.509V4.291L4.035,7.997z M20.718,15.571v-0.292H4.525v2.153h14.333L20.718,15.571z M17.549,19.534H4.525
	v2.151H17.01L17.549,19.534z M4.525,26.131h11.374l0.538-2.152H4.525V26.131z"/>
</svg>
