<?xml version="1.0" encoding="utf-8"?>
<?xml-stylesheet type="text/css" href="heartbeat-svg.css" ?>
<!-- Generator: Adobe Illustrator 16.0.0, SVG Export Plug-In . SVG Version: 6.00 Build 0)  -->
<!DOCTYPE svg PUBLIC "-//W3C//DTD SVG 1.1//EN" "http://www.w3.org/Graphics/SVG/1.1/DTD/svg11.dtd">
<svg class="svg-default" version="1.1" id="Layer_1" xmlns="http://www.w3.org/2000/svg" xmlns:xlink="http://www.w3.org/1999/xlink" x="0px" y="0px"
	 width="96px" height="96px" viewBox="0 0 96 96" enable-background="new 0 0 96 96" xml:space="preserve">
<g>
	<path d="M46.636,40.568c-1.118,0-1.842,0.099-2.269,0.197v14.502c0.427,0.099,1.118,0.099,1.743,0.099
		c4.537,0.032,7.496-2.467,7.496-7.76C53.64,43.002,50.943,40.568,46.636,40.568z"/>
	<path d="M27.271,40.503c-1.021,0-1.71,0.099-2.072,0.197v6.543c0.428,0.099,0.953,0.132,1.677,0.132
		c2.664,0,4.308-1.348,4.308-3.617C31.184,41.719,29.771,40.503,27.271,40.503z"/>
	<path d="M60.438,2.723H13.79v91.202h66.53V29.773l-23.635-16.32L60.438,2.723z M34.11,48.888c-1.71,1.611-4.241,2.335-7.2,2.335
		c-0.659,0-1.25-0.033-1.711-0.099v7.924h-4.965V37.182c1.545-0.264,3.715-0.461,6.773-0.461c3.091,0,5.294,0.592,6.775,1.776
		c1.414,1.118,2.367,2.959,2.367,5.129C36.149,45.797,35.425,47.638,34.11,48.888z M62.218,36.886h13.548v4.11H67.25v5.063h7.958
		v4.077H67.25v8.911h-5.032V36.886z M58.933,47.44c0,4.242-1.544,7.168-3.682,8.977c-2.335,1.94-5.887,2.862-10.226,2.862
		c-2.598,0-4.44-0.166-5.689-0.33V37.182c1.842-0.296,4.242-0.461,6.775-0.461c4.209,0,6.938,0.756,9.075,2.369
		C57.487,40.799,58.933,43.528,58.933,47.44z"/>
	<polygon points="65.106,2.723 62.067,11.417 80.319,24.02 	"/>
</g>
</svg>
