<?xml version="1.0" encoding="utf-8"?>
<?xml-stylesheet type="text/css" href="heartbeat-svg.css" ?>
<!-- Generator: Adobe Illustrator 16.0.0, SVG Export Plug-In . SVG Version: 6.00 Build 0)  -->
<!DOCTYPE svg PUBLIC "-//W3C//DTD SVG 1.1//EN" "http://www.w3.org/Graphics/SVG/1.1/DTD/svg11.dtd">
<svg class="svg-default" version="1.1" id="Layer_1" xmlns="http://www.w3.org/2000/svg" xmlns:xlink="http://www.w3.org/1999/xlink" x="0px" y="0px"
	 width="126px" height="126px" viewBox="0 0 126 126" enable-background="new 0 0 126 126" xml:space="preserve">
<path d="M38.089,54.078c-1.059,0.016-1.738,0.121-2.139,0.225v14.032c0.4,0.103,1.051,0.114,1.639,0.126
	c4.33,0.115,7.205-2.299,7.205-7.531C44.825,56.38,42.208,54.015,38.089,54.078z"/>
<path d="M74.458,107.833c0.143,0.008,0.287,0.021,0.434,0.021h33c3.859,0,7-3.141,7-7v-76.5c0-3.859-3.141-7-7-7h-33
	c-0.146,0-0.291,0.014-0.434,0.021V8.244l-64.41,8.596v91.586l64.41,8.818V107.833z M107.892,103.855h-33
	c-0.148,0-0.291-0.023-0.434-0.044V73.796c6.876-1.188,16.425-2.088,24.684-0.147l0.977,1.895c3.943,7.454,8.154,7.405,9.781,7.038
	c0.373-0.084,0.574-0.178,0.574-0.178l0.219-0.116c0.073-0.047,0.131-0.106,0.199-0.157v18.725
	C110.892,102.509,109.546,103.855,107.892,103.855z M77.257,70.238c5.168-6.303,9.344-12.186,12.033-16.171l0.01,0.022l0.029-0.045
	c2.111,4.451,5.592,11.336,7.988,16.035l-0.008-0.002l0.082,0.158c-6.814-1.165-14.131-0.74-20.15,0.092l0.088-0.103L77.257,70.238z
	 M89.413,40.829c0.207-0.365,0.51-0.462,1.053-0.438c0.01,0.001,1.088,0.072,1.49,0.81c0.244,0.44,0.598,1.835-1.305,5.237h-0.002
	c0,0-0.246,0.409-0.709,1.148C88.874,43.841,88.944,41.654,89.413,40.829z M103.175,74.876c1.955,0.752,3.711,1.679,5.248,2.774
	c0.441,0.628,0.85,1.529,0.775,1.955c-0.004,0.021-0.008,0.041-0.02,0.062C108.548,79.783,106.038,79.862,103.175,74.876z
	 M74.892,21.355h33c1.654,0,3,1.346,3,3V75.95c-0.094-0.133-0.175-0.244-0.223-0.304l-0.127-0.164l-0.166-0.122
	c-2.561-1.87-5.646-3.31-9.182-4.284c-2.52-4.922-7.74-15.18-9.934-19.984c1.27-1.957,1.953-3.098,1.984-3.15
	c1.979-3.529,2.412-6.284,1.318-8.227c-0.992-1.759-2.969-2.287-3.979-2.321c-1.633-0.074-3.025,0.624-3.781,1.954
	c-1.152,2.031-0.914,5.588,0.715,10.566c0.072,0.23,0.188,0.525,0.342,0.896c-2.61,3.947-7.344,10.773-13.402,18.105V21.399
	C74.601,21.378,74.743,21.355,74.892,21.355z M26.546,62.125c-1.523,1.511-3.762,2.17-6.346,2.146
	c-0.568-0.005-1.082-0.04-1.479-0.105v7.352l-4.23-0.117V51.329c1.307-0.272,3.156-0.498,5.795-0.562
	c2.697-0.066,4.65,0.445,5.967,1.533c1.27,1.033,2.127,2.77,2.127,4.831C28.38,59.194,27.728,60.943,26.546,62.125z M46.405,69.673
	c-2.285,1.864-5.719,2.677-9.84,2.561c-2.428-0.069-4.131-0.273-5.279-0.463v-20.83c1.695-0.323,3.924-0.535,6.303-0.593
	c4.014-0.098,6.658,0.585,8.754,2.137c2.275,1.663,3.719,4.37,3.719,8.286C50.062,65.015,48.521,67.917,46.405,69.673z
	 M53.386,50.132l14.23-0.34v4.279l-9.051,0.131v5.165l8.449-0.021v4.238l-8.449-0.059v9.092l-5.18-0.143V50.132z"/>
<path d="M20.515,54.285c-0.883,0.014-1.48,0.114-1.793,0.211v6.07c0.367,0.092,0.822,0.123,1.451,0.123
	c2.324,0.002,3.771-1.266,3.771-3.397C23.944,55.375,22.698,54.25,20.515,54.285z"/>
</svg>
