<?xml version="1.0" encoding="UTF-8" standalone="no"?>
<?xml-stylesheet type="text/css" href="heartbeat-svg.css" ?>
<!-- Generator: Adobe Illustrator 16.0.4, SVG Export Plug-In . SVG Version: 6.00 Build 0)  -->
<!DOCTYPE svg PUBLIC "-//W3C//DTD SVG 1.1//EN" "http://www.w3.org/Graphics/SVG/1.1/DTD/svg11.dtd">
<svg class="svg-default svg-save" version="1.1" id="Capa_1" xmlns="http://www.w3.org/2000/svg" xmlns:xlink="http://www.w3.org/1999/xlink" x="0px" y="0px"
	 width="512px" height="512px" viewBox="0 0 512 512" enable-background="new 0 0 512 512" xml:space="preserve"
>
<path d="m 504.72858,141.35833 c -4.42535,-10.63201 -9.74308,-19.05277 -15.94101,-25.25818 L 395.83083,23.031221 C 389.63701,16.82989 381.22231,11.5098 370.59904,7.0750322 359.97983,2.644344 350.24082,0.429 341.39012,0.429 H 33.298826 C 24.448135,0.429 16.921787,3.5296656 10.723857,9.7350766 4.5259274,15.936408 1.429,23.471842 1.429,32.337298 V 479.07794 c 0,8.86547 3.0969274,16.40091 9.294857,22.60222 6.19793,6.20135 13.724278,9.30608 22.574969,9.30608 H 479.50085 c 8.85479,0 16.38114,-3.10473 22.57498,-9.30608 6.19386,-6.20131 9.29077,-13.73675 9.29077,-22.60222 V 170.61475 c 0,-8.86546 -2.21267,-18.61623 -6.63802,-29.25642 z M 213.90674,53.609496 c 0,-2.880354 1.05132,-5.369046 3.15397,-7.478316 2.10266,-2.10111 4.59243,-3.153701 7.46931,-3.153701 h 63.7478 c 2.86873,0 5.3585,1.048511 7.46115,3.153701 2.10673,2.10927 3.15805,4.597962 3.15805,7.478316 V 159.97457 c 0,2.88444 -1.0554,5.37721 -3.15805,7.4824 -2.10265,2.10111 -4.59242,3.1537 -7.46115,3.1537 h -63.7478 c -2.87688,0 -5.36665,-1.04851 -7.46931,-3.1537 -2.10265,-2.10928 -3.15397,-4.59796 -3.15397,-7.4824 V 53.609496 z M 383.88729,468.44184 H 128.91238 V 340.8005 h 254.97491 v 127.64134 z m 84.99844,0 h -42.50533 -0.003 V 330.16031 c 0,-8.86545 -3.09695,-16.39681 -9.29488,-22.60221 -6.19385,-6.20542 -13.72018,-9.30608 -22.5709,-9.30608 H 118.28942 c -8.85477,0 -16.38111,3.10066 -22.579043,9.30608 -6.193853,6.20133 -9.294858,13.73676 -9.294858,22.60221 V 468.44184 H 43.922103 V 42.973396 H 86.415205 V 181.25084 c 0,8.86545 3.096928,16.39681 9.294858,22.60223 6.197937,6.20133 13.724267,9.30607 22.579047,9.30607 h 191.23118 c 8.8507,0 16.3852,-3.10474 22.57497,-9.30607 6.18979,-6.20133 9.29486,-13.73678 9.29486,-22.60223 V 42.973396 c 3.31697,0 7.6323,1.105633 12.94597,3.320978 5.31775,2.215345 9.07888,4.430686 11.29156,6.64603 l 93.29495,93.407556 c 2.21675,2.21534 4.42942,6.04222 6.64208,11.46837 2.21674,5.43025 3.32105,9.69775 3.32105,12.79842 v 297.82709 z"/>
</svg>
