<?xml version="1.0" encoding="utf-8"?>
<?xml-stylesheet type="text/css" href="heartbeat-svg.css" ?>
<!-- Generator: Adobe Illustrator 16.0.0, SVG Export Plug-In . SVG Version: 6.00 Build 0)  -->
<!DOCTYPE svg PUBLIC "-//W3C//DTD SVG 1.1//EN" "http://www.w3.org/Graphics/SVG/1.1/DTD/svg11.dtd">
<svg class="svg-default" version="1.1" id="Layer_4" xmlns="http://www.w3.org/2000/svg" xmlns:xlink="http://www.w3.org/1999/xlink" x="0px" y="0px"
	 width="100px" height="100px" viewBox="0 0 100 100" enable-background="new 0 0 100 100" xml:space="preserve">
<g>
	<path opacity="0.88" enable-background="new    " d="M97.614,32.719c-0.017-0.063-0.047-0.121-0.087-0.173l-0.232-0.294
		l0.059-0.236c0.021-0.082,0.019-0.168-0.005-0.249c-1.609-5.56-4.331-11.017-7.871-15.782c-0.051-0.068-0.119-0.122-0.198-0.155
		l-0.592-0.249c-0.15-0.063-0.328-0.044-0.463,0.053l-0.472,0.323c-0.322-0.407-0.653-0.846-0.835-1.09
		c-0.808-0.888-1.492-1.793-1.798-2.208c0.021-0.086,0.019-0.178-0.01-0.264l-0.243-0.72c-0.471-0.915-1.94-2.124-2.134-2.279
		c-0.063-0.044-0.62-0.428-1.036-0.591c-0.437-0.172-0.897-0.196-0.948-0.198c-0.096-0.005-0.197,0.023-0.28,0.077
		c-1.277-0.916-4.054-3.147-4.085-3.173c-0.048-0.038-0.101-0.065-0.159-0.084l-0.552-0.171c-0.179-0.056-0.321-0.05-0.445,0.09
		c-0.006,0.003-0.132,0.086-0.575,0.204c-0.561,0.149-1.057,0.215-1.494,0.272l-0.111,0.016c-0.587,0.075-0.797,0.315-0.867,0.51
		l-0.801,1.285c-0.024,0.037-0.043,0.079-0.055,0.123c-0.018,0.062-0.045,0.212,0.007,0.437c-0.01-0.021-0.021-0.042-0.029-0.063
		c-0.195-0.427-0.581-0.762-0.696-0.85c-0.881-0.501-2.4-0.305-3.012-0.198c-1.103,0.188-2.592,0.685-2.895,0.8
		c-0.238,0.092-1.504,0.514-2.158,0.682c-0.382,0.1-0.714,0.198-1.005,0.285c-0.21,0.063-0.398,0.12-0.571,0.165
		c-0.285,0.074-1.716,0.496-4.373,1.288c-1.02,0.302-1.686,0.422-1.68,0.422c-0.345,0.036-0.632,0.049-0.868,0.049
		c-0.693,0-0.946-0.101-0.948-0.097c-0.001-0.01-0.009-0.105-0.009-0.105l0.007-1.133c-0.004-0.069-0.062-0.685-0.59-0.972
		c-0.427-0.233-0.979-0.301-1.733-0.337c-0.81-0.035-1.683,0.043-2.126,0.14c-0.82,0.18-1.475,0.537-1.941,1.061
		c-0.684,0.763-0.59,1.421-0.584,1.436c0,0,0.037,0.666,0.088,1.161c0.019,0.182,0.07,0.337,0.142,0.47
		c-0.427,0.198-1.143,0.486-2.251,0.811c-2.038,0.598-3.421,0.723-3.435,0.725c-0.262,0.022-0.456,0.252-0.436,0.514
		c0.041,0.541,0.47,2.939,0.516,3.203c0.022,0.136,0.219,1.336,0.305,1.664c0.081,0.313,0.298,1.002,0.3,1.002
		c0.015,0.062,0.16,0.576,0.697,0.83c0.419,0.197,1.207,0.309,2.047-0.02c0.699-0.276,0.975-0.604,1.24-0.919l0.468-0.548
		c0.005-0.004,0.438-0.391,0.933-0.225c0.46,0.158,0.824,0.673,0.938,0.874c-0.264,0.089-0.591,0.193-0.835,0.259
		c-0.484,0.13-5.177,1.64-5.177,1.64s-1.817,0.583-3.261,0.932c-1.441,0.348-2.242,0.464-2.557,0.485
		c-0.289,0.02-0.35,0.009-0.358,0.007c0,0,0.015-0.027,0.148-0.265c0.01-0.017,0.013-0.035,0.02-0.052
		c0.002-0.005,0.004-0.008,0.006-0.013c0.031-0.072,0.053-0.145,0.063-0.22c0.006-0.026,0.009-0.043,0.012-0.065
		c0.003-0.038,0.007-0.069,0.009-0.101c0-0.012,0.001-0.019,0-0.028c0.002-0.07,0-0.125,0-0.125s-0.014-0.034-0.042-0.091
		c-0.013-0.034-0.033-0.072-0.059-0.113c-0.102-0.191-0.271-0.485-0.52-0.759c-0.1-0.108-0.21-0.19-0.318-0.252
		c-0.328-0.184-0.648-0.18-0.648-0.18s-0.813-0.116-2.255,0.491c-1.443,0.608-1.942,1.114-2.245,1.572
		c-0.3,0.458-0.024,0.991-0.024,0.991c0.349,0.499,1.012,1.074,1.012,1.074l-0.014,0.004c-0.453,0.513-1.648,0.993-1.94,1.105
		c-0.042,0.015-0.065,0.024-0.065,0.024s-0.028,0.009-0.08,0.028c-0.367,0.127-1.921,0.647-3.332,0.824
		c-0.772,0.097-1.471,0.146-1.98,0.172c0.688-0.682,0.991-1.412,1.004-1.447c0.655-1.607,0.066-3.195-0.289-3.59
		c-0.331-0.359-0.992-0.851-1.042-0.886c-0.233-0.196-0.805-0.434-1.491-0.12c0.065-0.395,0.192-0.875,0.379-1.329
		c0.315-0.763,1-2.098,1-2.098c0.042-0.071,1.029-1.761,1.438-2.838c0.43-1.126,0.429-1.992,0.429-2.028
		c-0.001-0.106-0.036-0.21-0.102-0.294c0,0-0.466-0.591-0.719-0.92c0.76,0.165,1.32-0.151,1.424-0.216
		c1.052-0.795,1.705-2.217,1.726-2.261l0.944-1.915c0.072-0.147,0.064-0.323-0.022-0.464l-0.788-1.278
		c-0.068-0.112-0.181-0.19-0.31-0.217c-0.096-0.019-0.255-0.053-1.188,0.266c-0.43,0.146-0.787,0.299-1.037,0.415l-0.259-0.384
		c-0.015-0.024-0.095-0.108-0.113-0.129c-0.216-0.221-0.633-0.251-1.309-0.098C22.13,6,21.02,6.593,20.501,7.283
		c-0.288,0.382-0.425,0.662-0.49,0.835c-1.403,1.208-2.582,1.78-2.841,1.898c-0.474,0.073-0.776,0.3-0.827,0.338
		c-1.318,1.114-2.856,2.904-3.053,3.135c-0.065,0.064-0.125,0.151-0.183,0.261c-0.06,0.116-0.261,0.724-0.212,0.989
		c0.004,0.022,0.01,0.043,0.015,0.063c-0.6,0.796-0.986,1.239-1.19,1.459c-0.058-0.001-0.12,0.003-0.18,0.012
		c-0.235,0.068-0.664,0.334-0.838,0.445c-0.052,0.034-0.097,0.077-0.133,0.126c-0.367,0.521-1.215,1.921-1.489,2.378
		c-0.063,0.031-0.129,0.071-0.189,0.11c-0.072,0.003-0.144,0.024-0.209,0.061l-0.654,0.367c-0.072,0.041-0.133,0.099-0.175,0.169
		c-3.052,5.019-5.157,10.482-6.259,16.242c-0.013,0.069-0.01,0.143,0.008,0.212l0.041,0.151l-0.172,0.383
		c-0.016,0.037-0.027,0.075-0.034,0.113c-0.48,2.77-0.724,5.615-0.724,8.463c0,1.858,0.105,3.73,0.312,5.564
		c0.01,0.08,0.038,0.156,0.083,0.221l0.174,0.248l-0.106,0.262c-0.03,0.077-0.041,0.16-0.03,0.242
		c0.867,6.553,3.013,12.766,6.376,18.467c0.032,0.056,0.075,0.104,0.127,0.143l0.064,0.047l0.054,0.19
		c0.011,0.042,0.028,0.082,0.051,0.119c9.022,14.891,24.791,23.78,42.181,23.78c12.423,0,24.29-4.637,33.415-13.055
		c9.072-8.37,14.646-19.727,15.693-31.977c0.007-0.075-0.005-0.152-0.033-0.221l-0.128-0.311l0.17-0.285
		c0.038-0.064,0.062-0.139,0.066-0.214c0.069-1.085,0.105-2.171,0.105-3.228C99.286,41.154,98.723,36.858,97.614,32.719z
		 M97.781,39.431c0.066-0.065,0.109-0.19,0.097-0.503c0.167,1.231,0.286,2.47,0.359,3.715c-0.084,0.183-0.117,0.578-0.117,0.578
		s-0.063,0.447-0.149,0.438c-0.021-0.004-0.053-0.004-0.092-0.022c-0.119-0.06-0.304-0.3-0.447-1.329
		c-0.192-1.374-0.15-2.822-0.15-2.822s-0.042-0.148,0.044-0.181c0.085-0.031,0.18,0.096,0.18,0.096S97.634,39.58,97.781,39.431z
		 M96.715,33.062c0.205,0.771,0.373,1.554,0.54,2.335c-0.238-0.985-0.508-1.897-0.716-2.557L96.715,33.062z M96.538,32.838
		c0.056,0.175,0.111,0.359,0.168,0.554c-0.06-0.195-0.118-0.39-0.171-0.557L96.538,32.838z M96.397,32.66l0.017,0.021l-0.157-0.176
		v-0.001l0.138,0.15C96.395,32.655,96.396,32.659,96.397,32.66z M94.457,26.61c0.008-0.003,0.006-0.012,0.013-0.015
		c0.733,1.711,1.371,3.452,1.89,5.205c-0.041,0.002-0.08-0.001-0.124,0.008c-0.015,0.004-0.023,0.01-0.035,0.014
		c-0.004-0.01-0.006-0.016-0.006-0.016s-0.299-0.873-0.989-2.619c-0.607-1.527-0.773-2.184-0.806-2.324
		c-0.005-0.021-0.007-0.029-0.007-0.029S94.352,26.643,94.457,26.61z M96.254,32.493L96.254,32.493l-0.002-0.002L96.254,32.493z
		 M96.19,31.801L96.19,31.801c0,0.001-0.002-0.005-0.003-0.007C96.188,31.796,96.189,31.799,96.19,31.801z M89.004,17.938
		c0.121-0.061,0.255-0.138,0.363-0.222c0.04-0.031,0.065-0.063,0.097-0.096c0.822,1.171,1.594,2.379,2.313,3.618
		c-0.087,0.013-0.157,0.123,0.02,0.59c0.111,0.294,0.129,0.399,0.108,0.417c-0.036,0.024-0.18-0.194-0.18-0.194
		c-0.886-1.127-2.717-4.109-2.717-4.109l-0.176-0.121L89.004,17.938z M88.419,18.194c0.026-0.012,0.055-0.022,0.08-0.033
		c0.021-0.008,0.038-0.017,0.058-0.025c0.056-0.023,0.111-0.046,0.16-0.069c0,0,0.012-0.004,0.035-0.015c0,0,0,0,0.002,0
		l0.007,0.014c0.978,1.577,2.724,4.111,2.724,4.111s0.708,0.917,0.867,0.926c0.157,0.011-0.08-0.709-0.08-0.709
		s-0.078-0.29-0.014-0.329c0.655,1.18,1.257,2.387,1.811,3.609l-0.002,0.002c0,0-0.14,0.069-0.14,0.316
		c0,0.482,0.475,1.588,0.475,1.588s0.997,2.533,1.632,4.307c-0.203,0.112-0.326,0.289-0.768,0.361
		c-0.567,0.092-1.221,0.292-1.862,1.262c-0.192,0.291-0.262,0.601-0.275,0.895c-0.001,0.005-0.004,0.009-0.005,0.014
		c-0.001,0.02,0.004,0.038,0.002,0.057c0,0.119,0.005,0.232,0.021,0.34c0.003,0.033,0.005,0.064,0.011,0.096
		c0.016,0.091,0.035,0.174,0.057,0.253c0.007,0.029,0.013,0.066,0.021,0.093c0.003,0.006,0.004,0.01,0.007,0.016
		c0.078,0.25,0.163,0.413,0.163,0.413s0.344,0.566,0.511,0.856c0.164,0.293,1.021,2.121,0.035,3.455c0,0-0.528,0.614-1.46,0.822
		c-0.823,0.183-0.614-0.781-0.698-1.297c0,0-0.123-2.184-1.183-3.436c-0.936-1.096-2.629,0.852-3.475,1.5
		c-0.786,0.602-3.088,2.979-6.395,4.712l-0.12-1.588c0,0-0.081-0.854-0.541-2.184c-0.937-2.706-1.858-3.945-1.858-3.945
		s-0.369-0.796-1.187-1.12c-0.207-0.082-0.436-0.143-0.701-0.143c-1.273,0-1.37,1.168-1.37,1.168s-0.298,0.921-0.786,1.206
		c-0.419,0.242-1.549,0.9-2.322,0.518c-0.111-0.057-0.214-0.131-0.307-0.233c-0.147-0.16-0.267-0.332-0.393-0.5
		c-0.144-0.192-0.272-0.387-0.388-0.587c-0.401-0.695-0.648-1.427-0.713-2.139c-0.098-1.1,0.354-1.546,0.354-1.546
		s0.092-0.284,1.544-0.284c1.627,0,1.927-0.501,1.927-0.501s0.31-0.285,0.286-0.922c-0.025-0.638-0.274-2.006-0.745-2.874
		c-0.066-0.119-0.157-0.261-0.253-0.403c-0.358-0.543-0.889-1.216-1.362-1.764l-0.877-0.16l0.877,0.156
		c0.567-0.211,1.348-0.518,2.189-0.896c1.72-0.776,2.54-1.424,3.329-1.874c0,0,1.74-1.071,2.763-1.043
		c0.003,0,0.238-0.007,0.26,0.307c0.021,0.314,0.101,0.779,0.208,1.049c0.107,0.269,0.703,1.744,2.612,1.961
		c0.239,0.027,0.462,0.03,0.667,0.016c0.113-0.008,0.21-0.032,0.313-0.051c0.083-0.015,0.175-0.021,0.252-0.04
		c0.144-0.039,0.271-0.089,0.394-0.142c0.023-0.009,0.053-0.016,0.075-0.026c0.128-0.06,0.24-0.125,0.344-0.192
		c0.01-0.006,0.024-0.011,0.034-0.019c0.443-0.295,0.647-0.619,0.647-0.619s0.655-1.002-0.473-2.196c0,0-0.918-0.984-0.945-1.06
		c0,0-0.056-0.089,0.041-0.164c0.027-0.021,0.061-0.041,0.116-0.058c0.162-0.046,1.301-0.366,2.395-0.72
		C87.536,18.521,88.033,18.35,88.419,18.194z M82.429,49.392c0.504,1.044,1.627,1.151,2.439,0.949
		c0.816-0.204,1.083-0.651,1.534-1.629c0.447-0.974,0.691-1.043,0.691-1.043s0.181-0.259,1.007-0.162
		c0.826,0.095,1.004,0.678,1.004,0.678s0.476,1.125,0.379,2.306c-0.092,1.178-0.351,1.708-0.622,2.127
		c-0.272,0.423-1.684,0.285-1.684,0.285s-2.427-0.271-2.645,2.645c-0.217,2.915,0.759,4.936,0.759,4.936
		c0.355,0.772,0.718,1.178,1.018,1.395c0.297,0.216,0.581,0.502,0.581,0.502s0.054,0.045,0.127,0.143l-0.012-0.001
		c-1.73,1.4-2.242,1.854-3.62,2.829c0,0-1.573,1.175-3.292,2.102c-1.728,0.929-3.753,0.816-3.753,0.816s-0.548-0.06-0.282-0.457
		c0.264-0.396,0.607-1.363,0.738-1.855c0.135-0.493,0.397-1.741-0.605-2.139c-1.004-0.397-2.889,0.188-2.889,0.188
		s-4.332,1.153-6.099,3.092c-1.716,1.885-0.274,2.725-0.274,2.725s0.673,0.469,1.327,0.699c0.617,0.219,0.493,0.416,0.339,0.53
		c0,0-1.935,1.232-4.221,1.891c0,0-3.127,0.957-6.164,1.153c-2.979,0.191-4.264,0.27-4.297,0.271
		c-0.326-0.639-0.663-1.213-0.663-1.213s-0.354-0.544-0.526-1.31c-0.144-0.646-0.16-1.444,0.292-2.231
		c0.993-1.726,2.618-2.247,2.618-2.247s1.437-0.318,2.868,0.015c1.357,0.311,2.042-0.209,2.042-0.209s0.467-0.203,0.805-1.005
		c0.029-0.069,0.053-0.156,0.08-0.234c0.024-0.07,0.052-0.134,0.073-0.213c0.047-0.169,0.088-0.357,0.118-0.566
		c0.25-1.654-0.014-4.729-2.218-5.338c-2.207-0.605-3.378,0.54-3.378,0.54s-1.188,1.311-1.573,1.502
		c-0.387,0.192-0.98,0.538-0.98,0.538s-0.828,0.497-1.391,0.621c-0.349,0.077-1.529-1.47-1.795-2.79
		c-0.018-0.09-0.043-0.182-0.053-0.27c-0.111-1.102-0.321-2.025-0.312-3.975c0.002-0.277,0.007-0.574,0.019-0.896
		c0-0.004,0-0.01,0-0.016c0.391-0.022,0.788-0.043,1.187-0.06c3.42-0.124,5.115-0.53,6.933-0.937c1.816-0.41,4.373-1.895,4.753-2.18
		c0.333-0.247,0.987-0.547,1.251-1.456c0.028-0.097,0.047-0.208,0.065-0.317c0.006-0.035,0.016-0.063,0.021-0.1
		c0-0.004,0.002-0.007,0.002-0.01c0.162-1.238-1.306-2.064-1.306-2.064s-1.165-0.615-1.412-0.89
		c-0.122-0.137-0.127-0.271-0.101-0.371c0.026-0.095,0.079-0.158,0.079-0.158s0.66-1.421,2.772-2.253
		c2.111-0.835,3.532-1.061,4.42-1.156c0.893-0.095,1.192,0.227,1.316,0.379c0.121,0.15,0.121,0.464,0.02,0.785
		c-0.099,0.295-0.426,0.994-0.618,1.336c-0.188,0.341-0.5,1.164-0.302,1.553c0.199,0.388,0.807,0.568,1.591,0.426
		c0.786-0.143,2.859-0.729,4.679-1.486s4.856-2.245,4.856-2.245s0.009-0.004,0.021-0.012l0.001-0.007c0.002,0,0.002,0,0.005-0.002
		l0.079-0.676c0.001,0.004,0.003,0.01,0.004,0.014l-0.078,0.684C80.747,45.857,81.936,48.366,82.429,49.392z M87.371,62.561
		l-0.02,0.604c0.201,0.55,0.348,1.418,0.138,2.697c-0.276,1.7-0.681,2.684-0.951,3.189c-0.048,0.086-0.096,0.175-0.146,0.254
		c-0.02,0.028-0.029,0.043-0.045,0.064c-0.045,0.068-0.092,0.127-0.139,0.189c-0.05,0.064-0.143,0.176-0.259,0.306
		c-0.057,0.059-0.111,0.123-0.169,0.175c-0.023,0.02-0.048,0.041-0.068,0.06c-0.063,0.063-0.134,0.129-0.209,0.192
		c-0.02,0.019-0.031,0.032-0.05,0.05c-0.365,0.31-0.821,0.6-1.313,0.659c-1.07,0.128-2.23,0.113-3.309,1.145
		c-0.016,0.016-0.036,0.024-0.052,0.04c-0.034,0.035-0.073,0.076-0.109,0.114c-0.02,0.021-0.039,0.035-0.058,0.057
		c-0.007,0.007-0.012,0.016-0.018,0.023c-0.105,0.116-0.212,0.259-0.313,0.416c-0.872,1.309-0.673,2.761-0.673,2.761
		s0.112,1.1,1.292,0.8c1.176-0.3,2.382-1.206,3.292-1.927c0.905-0.719,0.349,0.243,0.349,0.243c-0.799,1.561-2.319,3.12-2.319,3.12
		s-0.528,0.461-1.693,2.102c-0.303,0.426-0.555,0.806-0.765,1.139c0,0.001-0.003,0.001-0.003,0.001s-0.004,0.005-0.007,0.009
		c-1.192,0.639-2.905,1.49-3.984,1.931c0.052-0.019,0.112-0.045,0.167-0.065c-0.056,0.023-0.115,0.05-0.167,0.071
		c-0.571,0.235-1.02,0.389-1.347,0.48c0.01-0.004,0.015-0.006,0.026-0.01c-0.348,0.099-0.554,0.123-0.617,0.092
		c-0.003-0.002-0.011-0.002-0.013-0.004c-0.012-0.01-0.006-0.025,0-0.041c0.002-0.006-0.002-0.009,0.002-0.014
		c0.122-0.179,0.441-0.439,0.441-0.439s0.382-0.383,0.382-0.77c0,0,0.03-0.141-0.147-0.237c-0.176-0.098-0.56-0.152-1.39,0.021
		c-0.407,0.084-0.8,0.2-1.169,0.323c-0.009,0.003-0.019,0.006-0.027,0.009c-0.496,0.167-0.944,0.348-1.281,0.498
		c0.006,0.001,0.008,0.001,0.01,0c0,0,0.034-0.015,0.096-0.039c-0.473,0.209-0.778,0.372-0.778,0.372s-0.836,0.387-1.418,0.841
		l0.018-0.019c-0.021,0.017-0.037,0.033-0.058,0.051c-0.071,0.057-0.138,0.114-0.198,0.174c-0.012,0.011-0.025,0.022-0.036,0.034
		c-0.075,0.076-0.134,0.151-0.181,0.228c-0.007,0.011-0.015,0.022-0.021,0.033c-0.043,0.077-0.067,0.152-0.07,0.226
		c0,0.006,0.001,0.01,0.001,0.015c0.001,0.079,0.022,0.154,0.082,0.225c0,0,0.111,0.179,0.607,0.338
		c0.058,0.018,0.084,0.04,0.096,0.064c0.004,0.007,0.003,0.016,0.003,0.023c0,0.016-0.007,0.031-0.018,0.047
		c-0.012,0.016-0.021,0.03-0.041,0.046c-0.008,0.007-0.02,0.015-0.028,0.021c-0.028,0.02-0.058,0.04-0.094,0.061l0.016-0.005
		c-0.284,0.16-0.813,0.323-0.813,0.323c-1.308,0.428-2.312,0.623-3.581,0.886c-1.315,0.27-2.452,0.518-3.219,0.687l-0.001-0.003
		l0.008-0.002c-0.082-0.312-0.203-0.618-0.336-0.909c-0.018-0.037-0.034-0.073-0.052-0.11c-0.063-0.132-0.127-0.259-0.193-0.382
		c-0.013-0.023-0.025-0.049-0.037-0.071c-0.075-0.137-0.149-0.263-0.219-0.38c-0.032-0.054-0.06-0.097-0.089-0.145
		c-0.033-0.053-0.063-0.103-0.093-0.149c-0.085-0.134-0.161-0.251-0.208-0.326c-0.301-0.481-0.8-0.757-2.291-0.508
		c-1.489,0.248-3.24,0.992-3.24,0.992s-1.811,0.953-3.158,0.774c-0.339-0.045-0.608-0.164-0.824-0.324
		c-0.646-0.48-0.799-1.326-0.788-1.647c0.014-0.427,0.29-0.8,0.994-1.075c0.704-0.276,2.36-0.648,4.772-0.773
		s3.311-1.695,3.311-1.695c0.275-0.4,0.744-1.232-0.05-1.942c-0.114-0.103-0.254-0.202-0.424-0.298
		c-0.842-0.472-1.17-0.574-1.454-0.704c-0.105-0.049-0.206-0.104-0.324-0.179c-0.009-0.007-0.018-0.011-0.027-0.018
		c-0.02-0.013-0.043-0.03-0.063-0.044c-0.05-0.035-0.099-0.068-0.157-0.113c-0.162-0.124-0.327-0.255-0.488-0.395
		c-0.484-0.419-0.931-0.918-1.139-1.549c-0.023-0.081-0.063-0.189-0.099-0.28l-0.486-0.319l-0.321-0.212l-0.001-0.001v0.001
		c0,0,0,0-0.001,0l-0.003-0.002l0.001-0.002h-0.001l0.002-0.002v0.001l-0.001,0.001v0.001l0.003,0.002c0,0,0-0.001-0.001-0.002
		l0.005-0.006l0,0l0.058-0.054l-0.058,0.054l0.01,0.007c-0.003,0-0.006,0.001-0.009,0.001l0.806,0.532
		c0.701-0.058,1.615-0.123,2.43-0.162c1.617-0.079,4.154-0.454,5.627-0.775c1.474-0.328,3.704-1.015,5.352-1.868
		c1.651-0.854,1.731-1.455,1.731-1.455s0.124-0.177,0.046-0.434c-0.045-0.154-0.162-0.336-0.424-0.525
		c-0.688-0.501-0.991-0.365-1.601-0.983c-0.075-0.075-0.122-0.156-0.149-0.239c-0.186-0.591,0.683-1.3,0.683-1.3
		s0.588-0.828,3.849-2.084c3.262-1.258,3.81-0.836,3.978-0.697c0.041,0.033,0.074,0.087,0.098,0.151
		c0.071,0.2,0.069,0.507,0.019,0.733c-0.066,0.305-0.473,1.394-0.691,1.967c-0.11,0.289-0.185,0.632-0.116,0.924
		c0.063,0.284,0.261,0.522,0.697,0.616c0.886,0.185,2.121-0.009,3.281-0.425c2.769-0.988,3.597-2.196,8.17-5.517
		c0.011-0.01,0.021-0.015,0.028-0.022l0.017-0.619c0.001-0.001,0.002-0.002,0.003-0.003v0.001
		C87.366,62.549,87.369,62.556,87.371,62.561z M40.294,79.293c0.731,0.824,1.498,1.178,1.498,1.178s0.451,0.198,0.443,0.322
		c-0.007,0.156-0.014,0.295-0.352,0.489c0,0-1.333,0.78-3.932,0.823c-2.598,0.043-3.743,0.02-4.506-0.666
		c-0.63-0.566,0.158-1.765,0.158-1.765s0.315-0.587,0-1.392c-0.316-0.804-2.123-0.817-2.123-0.817l-2.503-0.128
		c-2.963-0.078-6.875-0.41-8.617-0.626c0,0-0.011-0.002-0.03-0.005v0.002l-0.051-0.076c0,0-1.794-3.23-1.604-4.418
		c0,0,0.05-0.604,0.813-0.987c0.109-0.055,0.233-0.104,0.373-0.147c0.782-0.24,0.679,0.519,2.979,0.933c0,0,1.153,0.306,1.931-0.188
		c0.24-0.153,0.447-0.376,0.57-0.717c0.516-1.442-0.542-3.249-0.542-3.249s-1.389-2.542-3.105-2.638h-0.001l0,0
		c-0.012-0.001-0.019,0.002-0.028,0.001c-0.869-0.036-0.65,0.561-2.004,0.883c0,0-1.833,0.178-2.412-0.921
		c-0.701-1.33-0.973-2.842-0.973-3.85c0-0.035,0.001-0.059,0.001-0.091c0.017-0.631,0.037-0.851,0.07-1.025
		c0.015-0.063,0.031-0.132,0.051-0.226c0.022-0.098,0.063-0.227,0.108-0.393c0.047-0.173,0.097-0.385,0.129-0.653l-0.002-0.01
		c0.777-0.086,2.024-0.22,3.465-0.376c2.42-0.26,4.047-0.521,5.551-0.295c1.505,0.225,1.989,1.399,1.989,1.399
		s0.026,0.075,0.009,0.178c-0.02,0.101-0.079,0.226-0.246,0.333c-0.335,0.217-0.719,0.525-0.907,0.854
		c-0.001,0.002-0.002,0.004-0.004,0.006c0,0,0,0.001-0.001,0.002c-0.021,0.038-0.044,0.083-0.065,0.131
		c-0.001,0.001-0.001,0.001-0.001,0.001c-0.16,0.366-0.264,0.999,0.219,1.816c0.548,0.922,2.051,1.523,3.33,1.371
		c1.277-0.149,3.192-0.641,4.326-0.938c0.928-0.242,1.771-0.646,2.194-1.241c0.142-0.199,0.238-0.419,0.273-0.662
		c0.142-0.965-1.47-2.198-1.47-2.198s-0.774-0.585-0.869-0.718c-0.024-0.034-0.029-0.063-0.026-0.086
		c0.022-0.063,0.115-0.093,0.115-0.093s0.909-0.22,1.299-0.396c0.387-0.182,1.457-0.619,3.21-1.167
		c1.753-0.549,5.367-1.194,5.367-1.194s1.995-0.317,4.485-0.52l0.009-0.01c0.003-0.001,0.005-0.001,0.007-0.001l0.308-0.354
		l0.094-0.107l-0.407,0.471c-0.007,0.235-0.015,0.477-0.024,0.728c-0.138,3.711,0.689,5.614,0.689,5.614
		c0.47,1.019,0.979,1.752,1.67,2.218c0.688,0.469,1.627,0.15,1.932,0c0.302-0.151,1.143-0.539,1.86-0.992
		c0.717-0.457,0.693-0.65,1.559-1.45c0.869-0.798,1.987-0.577,1.987-0.577s1.061,0.025,1.666,1.256
		c0.609,1.229,0.487,2.977,0.332,3.612c-0.151,0.633-0.426,1.049-1.018,0.937c-0.595-0.109-1.574-0.208-1.933-0.221
		c-0.359-0.014-1.371-0.048-2.291,0.193c-0.898,0.234-2.111,0.881-3.269,2.761c-0.898,1.454-0.458,2.883-0.25,3.448
		c0.162,0.442,0.607,1.058,0.998,1.814l0.724,0.241l-0.001,0.002l-0.719-0.239c-1.229,0.147-3.308,0.443-5.357,0.938
		c-2.51,0.612-4.904,1.099-6.608,2.198C40.835,77.622,39.561,78.471,40.294,79.293z M20.329,76.727l-0.005,0.135
		c0-0.001-0.001-0.001-0.001-0.001v0.001l0,0v-0.002l0,0L20.329,76.727z M16.5,58.303l-0.003-0.002l0.003-0.002
		C16.5,58.299,16.5,58.301,16.5,58.303z M46.604,37.997c-0.187-1.338-0.238-1.653-1.42-5.71c1.551-0.213,2.81-0.411,4.239-0.689
		c0.959-0.188,1.991-0.409,3.249-0.699c0,0,2.913-0.519,3.518-1.583c0.352-0.62,0.983-1.471-0.039-2.323
		c-0.002-0.002-0.004-0.004-0.006-0.006l-0.001-0.001c0,0-0.117-0.155-0.756-0.298c-0.27-0.061-0.51-0.116-0.741-0.186
		c-0.314-0.095-0.611-0.218-0.921-0.44c-0.54-0.386-0.527-0.832-0.527-0.832s-0.046-0.426,0.825-0.916c0,0,0.457-0.335,1.367-0.719
		c0.304-0.128,0.658-0.261,1.063-0.39c1.619-0.51,3.492-0.283,3.492-0.283s0.784,0.085,0.655,0.615
		c-0.134,0.531-0.578,1.419-0.596,1.875c-0.012,0.273-0.002,0.574,0.198,0.852c0.065,0.09,0.155,0.176,0.268,0.259
		c0.116,0.086,0.253,0.169,0.432,0.244c0.558,0.23,1.267,0.272,1.72,0.271c0.271,0,0.452-0.017,0.452-0.017s1.323-0.065,3.493-0.766
		c1.359-0.439,2.72-0.912,3.545-1.204c0.486-0.171,0.787-0.279,0.828-0.294c0.009-0.004,0.01-0.004,0.021-0.008l0.002,0.008
		c1.902,1.863,2.247,4.134,2.247,4.134s0.257,0.895-0.27,0.963c-0.461,0.059-1.535,0.067-1.535,0.067S71,29.963,70.336,30.098
		c-0.66,0.135-1.082,0.84-1.176,1.328s-0.382,1.828,0.748,3.934c1.123,2.102,2.547,2.006,2.547,2.006
		c1.235-0.107,1.614-0.325,2.334-0.813c0.697-0.475,1.017-1.531,1.057-1.734c0.043-0.204,0.137-0.406,0.297-0.406
		c0.168,0,0.112,0,0.492-0.054c0.383-0.054,0.667,0.217,0.978,0.854c0.204,0.41,1.288,2.196,1.601,3.256
		c0.313,1.055,0.585,2.112,0.61,3.062c0.012,0.374,0.064,0.805,0.124,1.184l0.301,0.435c0,0.001,0,0.002,0,0.003l-0.001,0.005
		l-0.31-0.451c-1.588,0.791-5.187,2.541-7.534,3.363c0,0-1.795,0.729-2.527,0.748c0,0-0.163,0.006-0.032-0.17
		c0.127-0.178,0.264-0.309,0.485-0.707c0.22-0.4,0.618-1.299,0.618-2.227s-1.071-1.835-2.565-1.674
		c-1.493,0.16-2.921,0.574-4.642,1.237c-1.719,0.662-3.199,2.066-3.397,3.23c-0.2,1.164,1.058,1.838,1.058,1.838
		s1.42,0.719,1.602,1.107c0.181,0.389,0.048,0.75,0.048,0.75s-0.123,0.388-0.75,0.748c-0.621,0.36-2.316,1.231-2.316,1.231
		s-2.112,1.165-5.324,1.447c0,0-2.928,0.249-4.61,0.334c-0.019,0.002-0.039,0.002-0.059,0.003c0.073-2.155-0.188-3.833-0.635-5.081
		c-0.149-0.416-0.318-0.785-0.504-1.107c-0.77-1.353-2.026-2.07-2.646-2.373c-0.619-0.303-2.055-0.441-3.034-0.082
		c-0.979,0.359-1.185,0.648-1.543,1.269c-0.361,0.622-0.8,0.581-0.8,0.581s-1.31,0.027-1.777-1.936
		c-0.01-0.037-0.022-0.063-0.031-0.103c-0.063-0.302-0.101-0.568-0.135-0.829c-0.006-0.056-0.022-0.123-0.027-0.177
		c-0.02-0.173-0.02-0.314-0.025-0.47c-0.005-0.119-0.02-0.252-0.02-0.361c0.01-1.496,0.551-2.026,0.551-2.026
		s0.305-0.456,1.311-0.593c1.008-0.138,1.656,0.11,2.428,0.302c0.771,0.193,1.351,0.111,2.316-0.357
		c0.555-0.271,0.921-0.646,1.101-1.174C46.653,39.056,46.688,38.583,46.604,37.997z M62.78,9.49
		c0.678-0.175,1.985-0.607,2.264-0.715c0.271-0.105,1.693-0.576,2.714-0.752c1.033-0.182,1.964-0.146,2.3,0.036
		c0.055,0.048,0.28,0.265,0.372,0.465c0.126,0.278,0.484,0.96,1.104,1.275c0.519,0.258,0.898,0.41,2.051,0.308
		c1.636-0.411,1.821-1.323,1.654-1.634c-0.216-0.408-0.857-0.826-0.857-0.826s-0.861-0.55-1.046-0.81
		c-0.02-0.028-0.02-0.047-0.03-0.069c0.462-0.062,0.982-0.13,1.593-0.293c0.295-0.079,0.525-0.159,0.696-0.241l0.261,0.08
		c0.509,0.407,3.428,2.744,4.421,3.399c0.206,0.134,0.477,0.093,0.633-0.096l0.019-0.023c0.124,0.099,0.258,0.208,0.3,0.254
		c0,0,0.621-0.003,0.93,0.311c0.407,0.331,1.537,1.327,1.829,1.884l0.145,0.438c-0.08,0.157-0.066,0.346,0.035,0.492
		c0.037,0.052,0.909,1.289,2.013,2.499c0.113,0.153,1.033,1.394,1.543,1.931c-0.268,0.109-0.648,0.248-1.157,0.384
		c-1.066,0.287-2.095,0.767-2.095,0.767s-0.853,0.277-0.528,0.971c0.03,0.064,0.066,0.11,0.099,0.169
		c0.017,0.048,0.043,0.099,0.079,0.15c0,0,0.016,0.017,0.021,0.022c0.291,0.455,0.604,0.688,0.604,0.688s0.052,0.051,0.125,0.132
		c0.039,0.043,0.083,0.095,0.132,0.153c0.019,0.024,0.038,0.047,0.058,0.072c0.072,0.092,0.145,0.197,0.208,0.305
		c0.098,0.166,0.174,0.341,0.182,0.5c0.02,0.503-0.191,0.73-0.732,1.029c-0.538,0.3-1.028,0.358-1.028,0.358s-1.28,0.23-1.915-0.37
		c-0.635-0.6-0.754-1.592-0.754-1.592s-0.048-0.839-1.098-1.197c-1.056-0.359-2.349,0.406-2.349,0.406s-1.019,0.539-2.107,1.245
		c-1.09,0.706-3.15,1.568-4.442,2.023l-0.146,0.669v0.002c0.001,0,0.001,0,0.001,0l0.002,0.001l-0.003-0.001l0,0h-0.001h-0.001
		v-0.002h0.002h-0.001v-0.001l0.001,0.001l0.069-0.325l0.074-0.341c0-0.002,0-0.002,0-0.002v-0.001
		c-0.091-0.085-0.251-0.254-0.45-0.474c-0.491-0.544-1.239-1.415-1.921-2.232c-0.666-0.798-1.266-1.54-1.487-1.856
		c-0.54-0.773-0.622-0.95-0.718-1.208c-0.023-0.064-0.025-0.148-0.012-0.242c0.043-0.285,0.232-0.664,0.406-0.868
		c0.229-0.27,0.501-0.323,1.057-0.202c0.557,0.122,0.922,0.367,1.804,0.081c0.884-0.282,0.926-0.948,0.991-1.627
		c0.052-0.509-0.393-1.443-0.895-2.171c-0.167-0.244-0.34-0.464-0.502-0.637c-0.655-0.691-1.574-0.802-2.212-0.76
		c-0.636,0.041-1.003,0.502-1.373,0.706c-0.365,0.204-1.056,0.407-1.367,0.272c-0.156-0.068-0.354-0.137-0.577-0.304
		c-0.223-0.168-0.473-0.435-0.736-0.902c-0.349-0.612-0.645-1.173-0.837-1.543C62.375,9.6,62.567,9.545,62.78,9.49z M44.063,23.274
		c0.152-0.073,0.413-0.179,0.775-0.231l0.732-0.042c0.15,0.009,0.313,0.021,0.484,0.033l0.171,0.016
		c0.331,0.028,0.788,0.064,1.327-0.163c0.004-0.001,0.007-0.002,0.01-0.004c0.015-0.006,0.029-0.013,0.045-0.019
		c0.103-0.039,0.199-0.08,0.285-0.128c0.406-0.227,1.517-0.833,1.439-2.07c-0.074-1.237-1.061-2.703-1.867-3.207
		c-0.203-0.127-0.421-0.209-0.644-0.254c-0.667-0.138-1.375,0.057-1.81,0.379c-0.579,0.431-0.809,0.984-1.162,1.162
		c-0.349,0.172-0.844,0.564-1.368,0.454c-0.006-0.002-0.012,0-0.017-0.001c-0.53-0.127-0.557-1.313-0.783-2.651
		c-0.091-0.54-0.168-0.99-0.23-1.348c-0.025-0.152-0.048-0.283-0.068-0.4c0.621-0.095,1.656-0.286,2.984-0.676
		c2.216-0.649,2.978-1.169,3.058-1.225c0.101-0.073,0.148-0.187,0.169-0.305c0.23-0.146,0.439-0.294,0.604-0.451
		c0,0,0.599-0.28,0.021-0.842c-0.002-0.001-0.002-0.001-0.002-0.001V11.3c-0.581-0.56-0.859-0.729-0.859-0.729
		s-0.097-0.053-0.145-0.171c-0.013-0.033-0.02-0.074-0.021-0.118c0.051-0.094,0.119-0.197,0.225-0.316
		c0.331-0.37,0.813-0.627,1.433-0.763c0.319-0.07,1.113-0.153,1.879-0.119c0.597,0.028,0.946,0.078,1.181,0.164
		c-0.033,0.351-0.084,0.83-0.073,0.978c0.009,0.148,0.026,0.48,0.365,0.791c0.068,0.192,0.192,0.375,0.411,0.466
		c0.146,0.088,0.746,0.36,2.433,0.188c0.03-0.006,0.729-0.129,1.82-0.453c2.612-0.777,4.073-1.208,4.343-1.279
		c0.022-0.006,0.053-0.016,0.075-0.021c0.133,0.266,0.354,0.68,0.729,1.318c0.865,1.488,2.371,2.062,3.021,1.993
		c0.57-0.059,1.548-0.325,1.926-0.744c0.379-0.421,0.76-0.368,0.76-0.368c0.824-0.053,1.029,0.64,1.707,1.615
		c0.68,0.976,0.26,1.735,0.26,1.735c-0.449,0.596-0.954,0.475-1.415,0.38c-0.345-0.072-0.382-0.113-0.782-0.189
		c-1.249-0.165-1.668,0.757-1.668,0.757c-0.896,1.384,0.163,2.387,0.163,2.387s2.364,3.17,4.165,5.123
		c-1.36,0.468-3.125,1.059-3.125,1.059s-2.404,0.887-3.986,1.104c-1.578,0.215-1.93-0.014-2.143-0.229
		c-0.218-0.214,0.037-0.969,0.037-0.969s0.646-1.316,0.333-2c-0.31-0.685-2.346-0.862-2.379-0.862c-0.039,0-2.219-0.253-4.261,0.893
		c-1.814,1.017-2.053,1.572-2.053,1.572s-0.577,0.897,0.109,1.787c0.771,1.006,1.798,1.097,1.798,1.097s0.978,0.075,1.204,0.363
		c0.23,0.286,0.073,0.601,0.073,0.601s-0.321,0.884-2.133,1.255c0,0-3.042,0.893-8.717,1.699c-1.132-4.088-1.204-6.664-1.204-6.664
		C43.617,23.84,43.713,23.504,44.063,23.274z M25.283,35.698c0,0,0.453,0.058,0.387,0.221c-0.062,0.13-0.402,0.396-0.402,0.396
		s-0.131,0.078-0.625,0.64c-0.496,0.561-0.642,1.105-0.665,1.589c-0.003,0.061,0.003,0.137,0.019,0.224
		c0.105,0.601,0.7,1.737,2.293,2.073c1.821,0.381,3.904-0.326,3.904-0.326s1.365-0.301,2.666-1.603
		c0.591-0.592,0.667-1.235,0.565-1.772c-0.13-0.691-0.554-1.207-0.554-1.207s-0.212-0.292-0.62-0.423c0,0-0.097-0.027-0.105-0.087
		c-0.002-0.02,0.005-0.044,0.031-0.072c0.063-0.07,0.184-0.287,0.486-0.501c0.185-0.107,0.457-0.233,0.83-0.366
		c0.963-0.248,3.813-1.147,10.587-2.043l0.003-0.006c0.001,0.013,0.491,1.967,0.863,3.232c0.372,1.27,0.538,2.523,0.595,2.785
		c0.055,0.262,0.041,0.729-0.304,1.006c-0.345,0.277-1.187,0.512-1.364,0.539c-0.18,0.027-0.512-0.041-0.953-0.193
		c-0.443-0.151-0.883-0.179-0.883-0.179s-1.063-0.18-2.193,0.166c-1.132,0.343-1.987,1.501-2.057,2.95
		c-0.066,1.449-0.054,2.181,0.513,3.463c0.564,1.282,1.586,2.014,2.357,2.027c0.774,0.014,1.406-0.386,1.85-1.006
		c0.439-0.622,0.564-0.719,0.564-0.719c0.523-0.29,1.86-0.415,2.537-0.165c0.678,0.247,1.921,1.026,2.606,2.564
		c0.555,1.242,0.727,2.633,0.698,5.134l0.556,0.427l-0.004,0.005l-0.563-0.43c-1.57,0.13-3.389,0.344-3.389,0.344
		s-4.106,0.583-7.868,1.744c-3.193,0.983-3.801,1.525-3.801,1.525s-0.681,0.57-0.112,1.391c0,0,0.325,0.517,0.985,1.034
		c0.656,0.518,1.185,1.012,1.109,1.261c-0.076,0.254-0.277,0.366-0.277,0.366s-0.92,0.818-4.686,1.452c0,0-2.423,0.468-3.168-0.263
		c-0.745-0.733-0.416-1.225-0.416-1.225s0.05-0.165,0.593-0.504c0,0,0.91-0.571,0.62-1.653c-0.291-1.086-2.038-2.437-3.926-2.425
		c0,0-2.204,0.007-7.846,0.729c0,0-0.011,0.001-0.018,0.003c0.002-0.248-0.004-0.511-0.021-0.794
		c-0.088-1.59-0.202-4.04-0.417-5.466c-0.214-1.428-0.606-3.637-1.907-3.7c0,0-0.642-0.051-1.564,0.847
		c-0.846,0.819-1.611-0.678-1.653-1.592c-0.05-1.072,0.126-2.158,0.392-2.676c0.066-0.129,0.162-0.227,0.269-0.302
		c0.324-0.223,0.759-0.235,0.863-0.227c0.139,0.013,0.531,0.164,0.998,0.454c0.353,0.22,0.803,0.273,1.167,0.124
		c0.12-0.049,0.232-0.119,0.328-0.214c0.377-0.379,0.906-0.82,1.122-2.487c0.215-1.666,0.215-3.396,0.013-5.465l-0.004-0.009
		c0.366-0.065,0.851-0.15,1.398-0.234c0.609-0.093,1.299-0.186,2.023-0.257C21.938,35.605,24.293,35.574,25.283,35.698z
		 M9.274,20.229c0.076-0.056,0.197-0.134,0.269-0.16c0.114-0.034,0.212-0.109,0.273-0.211c0.011-0.019,1.035-1.731,1.482-2.384
		c0.146-0.091,0.294-0.178,0.375-0.227c0.04,0.016,0.081,0.027,0.125,0.031c0.132,0.018,0.269-0.025,0.371-0.113
		c0.053-0.046,0.546-0.492,1.69-2.036c0.086-0.103,0.121-0.237,0.104-0.368c-0.011-0.088-0.046-0.17-0.099-0.237
		c0.026-0.121,0.074-0.286,0.112-0.369c0.008-0.008,0.017-0.017,0.023-0.025c0.016-0.019,1.639-1.928,2.938-3.026
		c0.002-0.001,0.165-0.117,0.417-0.146c0.045-0.006,0.088-0.018,0.129-0.034c0.061-0.025,1.501-0.634,3.256-2.172
		c0.072-0.063,0.128-0.165,0.152-0.258c0-0.001,0.06-0.218,0.372-0.636c0.254-0.337,0.824-0.716,1.374-0.941
		c-0.181,0.162-0.411,0.369-0.702,0.681c-0.294,0.314-0.393,0.507-0.369,0.604c0.021,0.098,0.167,0.101,0.359,0.035
		c0.098-0.033,0.218-0.08,0.366-0.144c0.006-0.002,0.01-0.004,0.017-0.006c0-0.001,0-0.002,0-0.002
		c0.372-0.159,0.915-0.419,1.684-0.815l0.031,0.046c0.139,0.207,0.413,0.273,0.63,0.15c0.005-0.001,0.339-0.182,0.853-0.385
		c-0.294,0.632-0.802,1.626-1.38,2.344c0,0-0.358,0.528-0.636,0.398c-0.276-0.128-0.602-0.138-0.871-0.082
		c-0.27,0.059-1.106,0.335-1.865,1.353c-0.756,1.019-0.845,1.784-0.438,2.012c0.406,0.228,1-0.073,1.358-0.39
		c0.266-0.236,0.473-0.376,0.608-0.428c0.045,0.092,0.113,0.164,0.199,0.211c-0.002,0.063-0.009,0.126-0.018,0.159
		c-0.025,0.09-0.147,1.306-1.556,3.746c-0.353,0.612-0.809,1.521-1.023,1.958l-0.001,0.002c-0.001,0-0.006-0.004-0.006-0.004
		c-2.285,0.424-3.989,0.952-4.569,1.174c-0.584,0.22-0.595,0.079-0.595,0.079c-0.082-0.098-0.026-0.277,0.066-0.456
		c0.057-0.111,0.125-0.219,0.189-0.31c0.087-0.123,0.161-0.213,0.161-0.213s0.626-0.855,0.874-1.642
		c0.247-0.785-0.854-0.677-0.854-0.677c-0.726,0.115-1.248,0.459-1.849,1.182c-0.464,0.562-0.749,1.331-0.854,1.737
		c-0.068,0.256-0.185,0.493-0.185,0.493s-0.087,0.157-0.431,0.309c-0.398,0.174-1.176,0.379-1.176,0.379s-0.517,0.043-0.891-0.144
		c-0.126-0.062-0.371-0.042-0.568-0.011C9.226,20.252,9.253,20.245,9.274,20.229z M8.574,20.791
		c0.001-0.002,0.003-0.004,0.003-0.006l0.009-0.008c-0.002,0.002-0.003,0.003-0.004,0.004h0.002l-0.162,0.241
		c0.058-0.088,0.111-0.168,0.16-0.241C8.578,20.785,8.577,20.787,8.574,20.791z M5.294,27.121c-0.006,0.021-0.007,0.027-0.012,0.046
		c-0.056,0.203-0.08,0.32-0.08,0.32C5.196,27.58,5.2,27.645,5.211,27.692c0.016,0.059,0.043,0.092,0.1,0.089
		c0.038-0.002,0.121-0.129,0.147-0.065c0.015,0.041,0.011,0.152-0.037,0.403c-0.086,0.446-0.501,1.635-0.664,2.117
		c-0.162,0.484-0.344,0.813-0.473,0.791c-0.043-0.008-0.067-0.037-0.088-0.069c-0.037-0.065-0.041-0.153-0.041-0.153
		s-0.006-0.075-0.032-0.127c-0.022-0.047-0.063-0.071-0.129-0.012C4.381,29.468,4.815,28.286,5.294,27.121z M3.68,31.68l0.003-0.007
		c0,0,0.044-0.118,0.082-0.175c0.03-0.045,0.056-0.048,0.049,0.096c-0.013,0.318,0.188,0.346,0.188,0.346
		c0.128-0.019,0.266-0.165,0.407-0.4l0.001,0.002c0.004-0.006,0.008-0.015,0.012-0.021c0.057-0.096,0.114-0.207,0.175-0.333
		c0.015-0.032,0.03-0.07,0.046-0.106c0.045-0.099,0.092-0.205,0.138-0.319c0.02-0.05,0.04-0.102,0.062-0.154
		c0.043-0.109,0.086-0.226,0.129-0.345c0.021-0.059,0.043-0.116,0.063-0.176c0.036-0.104,0.072-0.212,0.109-0.321
		c0.024-0.071,0.048-0.139,0.071-0.213c0.02-0.059,0.035-0.113,0.053-0.171c0.041-0.131,0.082-0.26,0.119-0.387
		c0.026-0.095,0.053-0.185,0.077-0.275c0.026-0.095,0.051-0.185,0.075-0.275c0.021-0.084,0.043-0.167,0.063-0.248
		c0.035-0.142,0.067-0.276,0.095-0.399c0.016-0.067,0.026-0.122,0.039-0.184c0.018-0.077,0.032-0.146,0.045-0.212
		c0.004-0.021,0.012-0.054,0.016-0.074l-0.001,0.001c0.037-0.194,0.059-0.328,0.059-0.36c0-0.104-0.054-0.185-0.146-0.132
		c-0.094,0.054-0.12,0.014-0.12,0.014c-0.002-0.022,0.003-0.057,0.01-0.094c0.002-0.006,0.002-0.011,0.004-0.018
		c0.062-0.305,0.332-0.968,0.332-0.968c0.143-0.363,0.293-0.717,0.447-1.059c0.015-0.032,0.029-0.063,0.043-0.095
		c0.075-0.162,0.149-0.322,0.226-0.479c0.004-0.01,0.008-0.019,0.014-0.028c0.593-1.224,1.211-2.244,1.647-2.919
		c0.08-0.012,0.084-0.007,0.23-0.053c0,0,0.386-0.063,1.065,0.115c0.876,0.232,1.978-0.475,1.978-0.475s0.016-0.011,0.042-0.027
		c0.005-0.002,0.009-0.006,0.014-0.01c0.026-0.017,0.06-0.039,0.102-0.07c0.01-0.007,0.021-0.016,0.031-0.023
		c0.041-0.029,0.084-0.063,0.135-0.104c0.017-0.013,0.035-0.028,0.053-0.044c0.047-0.038,0.094-0.079,0.144-0.126
		c0.014-0.011,0.024-0.021,0.038-0.034c-0.002,0.002-0.005,0.004-0.007,0.004c0.236-0.223,0.496-0.521,0.668-0.888l0.346-0.961
		c0,0,0.279-0.931,1.059-1.227c0,0,0.303-0.163,0.796-0.17c0.307-0.002,0.376,0.131,0.386,0.23c0.005,0.06-0.011,0.107-0.011,0.107
		s-0.054,0.223-0.562,0.873c-0.507,0.648-0.642,1.145-0.642,1.145s-0.172,0.389-0.052,0.679c0.041,0.097,0.113,0.183,0.235,0.239
		c0,0,0.23,0.135,0.899-0.088c0.67-0.223,2.891-0.807,4.248-1.015l0.01-0.004l-0.003,0.006c-0.254,0.726-0.579,1.862-0.45,2.499
		c0.194,0.968,1.108,0.968,1.108,0.968s0.204,0.007,0.507-0.057c0.019,0.009,0.03,0.029,0.051,0.036
		c0.166,0.055,0.485,0.063,1.043-0.222c0.045-0.022,0.08-0.028,0.12-0.041c0.328,0.305,0.419,1.204,0.419,1.391
		c0,0.253-0.006,1.652-0.977,2.337c0,0-0.391,0.301-0.942,0.301c-0.555,0-0.913-0.162-0.913-0.162s-0.941-0.26-1.522,0.079
		c-0.578,0.344-1.269,1.051-1.815,2.077c-0.544,1.026-1.001,2.858-0.976,4.21c0.02,1.063,0.172,2.069,0.279,2.756l0.633,0.413
		c-0.002,0-0.003,0-0.005,0v0.001h-0.001v-0.001l-0.644-0.415c0,0-2.192,0.578-4.668,0.563c-1.741-0.008-1.692-0.921-1.472-1.521
		c0.03-0.084,0.064-0.163,0.098-0.232c0.009-0.019,0.019-0.037,0.027-0.054c0.03-0.06,0.061-0.116,0.084-0.152
		c0.027-0.047,0.047-0.076,0.047-0.076s0.61-1.071,0.719-1.688c0,0,0.215-1.671-1.359-1.562C7.33,30.825,7.02,32.197,7.02,32.197
		s-0.106,0.767-0.084,1.333c0.02,0.568-0.002,1.768-0.711,2.45c-0.705,0.683-1.464,0.475-1.464,0.475s-1.274-0.558-1.527-0.688
		c-0.2-0.104-0.382-0.114-0.557-0.086C2.955,34.329,3.289,32.995,3.68,31.68z M2.215,51.192l-0.253-0.36
		C1.77,49.07,1.67,47.276,1.67,45.494c0-2.772,0.236-5.544,0.699-8.241l0.216-0.483c0.021-0.045,0.03-0.093,0.036-0.141
		c0.205,0.041,0.389,0.133,0.389,0.133s1.088,0.585,1.571,0.686c0.486,0.102,0.838-0.063,1.154-0.279
		c0.065-0.046,0.135-0.113,0.203-0.171c0.059-0.049,0.114-0.088,0.172-0.145c0.045-0.044,0.087-0.097,0.13-0.144
		c0.077-0.081,0.154-0.159,0.228-0.25c-0.007,0.007-0.015,0.013-0.022,0.02c0.205-0.254,0.378-0.534,0.513-0.82
		c-0.008,0.025-0.016,0.05-0.03,0.086c0.057-0.115,0.107-0.229,0.148-0.338c0.025-0.073,0.049-0.162,0.069-0.261
		c0.008-0.032,0.014-0.069,0.02-0.105c0.012-0.053,0.021-0.104,0.031-0.161c-0.003,0.011-0.005,0.019-0.007,0.028
		c0.047-0.288,0.081-0.615,0.104-0.917c0,0.006,0,0.012,0,0.018c0.038-0.479,0.049-0.875,0.049-0.891l0.004,0.012v-0.006
		l0.001,0.004c0,0,0-0.404-0.011-0.497c-0.003-0.009-0.003-0.024-0.005-0.038c-0.016-0.135-0.046-0.507,0.199-0.708
		c0.266-0.225,0.439-0.332,1.095-0.349c0.651-0.017,0.849,0.363,0.849,0.363s0.221,0.311,0.222,0.512
		c0,0.199-0.064,0.324-0.064,0.324s-0.354,0.6-0.479,0.894c-0.125,0.293-0.609,1.269-0.468,2.083c0,0.002,0,0.002,0,0.002v0.003
		c0.142,0.815,1.416,1.197,1.416,1.197s1.016,0.239,2.465,0.025l2.986-0.481l0.52-0.597l0.004,0.007l-0.513,0.588
		c0.075,1.088,0.161,3.219,0.147,3.934c-0.017,0.873-0.146,2.718-1.066,3.151c0,0-0.311,0.163-0.831-0.228
		c-0.521-0.392-1.083-0.408-1.312-0.417c-0.227-0.007-1.23,0.155-1.62,1.255c-0.391,1.097-0.358,2.574-0.276,3.443
		c0.082,0.871,0.838,2.353,1.791,2.353c0,0,0.464,0.034,1.01-0.528c0.544-0.562,0.863-0.611,1.106-0.603
		c0.245,0.009,0.718,0.261,1.026,2.729c0.294,2.338,0.419,4.253,0.396,6.383l0.564,0.367c0,0.001,0,0.002,0,0.003
		c-0.004,0-0.006,0-0.009,0l-0.569-0.371c-0.311,0.038-0.684,0.073-1.067,0.104c-0.968,0.066-2.37-0.056-4.115-0.571
		c-1.684-0.501-2.748-1.397-2.963-1.975c-0.005-0.024-0.021-0.049-0.024-0.073c-0.025-0.092-0.037-0.19-0.04-0.293
		c-0.003-0.029-0.001-0.051-0.003-0.078c0.004-0.3,0.071-0.576,0.071-0.576s0.328-1.26,0.122-2.298
		c-0.023-0.116-0.049-0.228-0.077-0.338c-0.007-0.04-0.013-0.075-0.017-0.101c-0.009-0.025-0.016-0.055-0.022-0.081
		c-0.009-0.021-0.021-0.04-0.029-0.06c-0.228-0.766-0.607-1.391-1.416-1.879c-1.002-0.604-1.572-0.5-1.572-0.5
		s-0.899-0.137-0.866,1.386c0.036,1.521,0.226,2.159,0.226,2.159s0.173,0.537-0.104,0.607c-0.275,0.069-0.709-0.346-0.709-0.346
		s-0.195-0.178-0.463-0.439c-0.034-0.036-0.067-0.07-0.102-0.108c-0.181-0.181-0.38-0.389-0.573-0.602l0.088-0.218
		C2.326,51.496,2.308,51.325,2.215,51.192z M3.957,60.189c0.002-0.005,0.001-0.014,0.004-0.014c0.078-0.014,0.556,0.848,0.828,1.668
		c0.317,0.947,0.531,1.737,0.531,1.737s0.174,0.536,0.161,0.727C4.909,62.957,4.402,61.584,3.957,60.189z M8.669,70.557L8.59,70.271
		c-0.029-0.104-0.092-0.192-0.178-0.256l-0.117-0.088c-0.895-1.522-1.69-3.086-2.407-4.68c0.003-0.009,0.003-0.028,0.005-0.039
		c0.008-0.028,0.015-0.061,0.016-0.107c0.001-0.03-0.003-0.07-0.005-0.108c-0.004-0.058-0.012-0.122-0.022-0.199
		c-0.004-0.023-0.002-0.035-0.007-0.061c-0.002-0.002-0.003-0.002-0.005-0.004c-0.077-0.46-0.287-1.224-0.746-2.465
		c-0.5-1.354-0.821-2.078-1.024-2.473c0-0.002,0.001-0.003,0.002-0.005c-0.02-0.038-0.037-0.07-0.055-0.101
		c0,0-0.001,0.003-0.001,0.005c-0.17-0.315-0.242-0.365-0.264-0.391c-0.024-0.031-0.087-0.09-0.128-0.068
		c-0.626-2.115-1.097-4.278-1.428-6.48c0.076,0.089,0.159,0.185,0.253,0.289l0.002,0.002c0.167,0.187,0.364,0.4,0.598,0.641
		l0.002,0.002l0,0c0,0.001,0.001,0.001,0.001,0.001c1.038,1.073,1.366,0.398,1.366,0.398s0.017-0.048,0.035-0.138
		c0.002-0.009,0.004-0.021,0.006-0.031c0.007-0.039,0.015-0.082,0.022-0.135c0.003-0.019,0.004-0.04,0.007-0.06
		c0.006-0.053,0.012-0.107,0.016-0.171c0-0.011,0.002-0.018,0.002-0.027c0,0.002-0.002,0.004-0.002,0.006
		C4.54,53.4,4.54,53.248,4.531,53.075c0,0.004,0,0.009,0.001,0.014c0-0.005-0.001-0.012-0.001-0.017
		c-0.006-0.087-0.018-0.181-0.028-0.279c-0.006-0.052-0.011-0.101-0.019-0.157c-0.016-0.103-0.039-0.216-0.064-0.329
		c-0.01-0.043-0.015-0.08-0.024-0.125c-0.001-0.005-0.003-0.009-0.004-0.014c-0.179-0.756-0.228-1.319-0.106-1.634
		c0.032-0.087,0.083-0.146,0.139-0.196c0.02-0.015,0.039-0.027,0.061-0.039c0.046-0.025,0.103-0.038,0.162-0.045
		c0.021-0.002,0.038-0.009,0.061-0.009c0.553,0.019,2.161,0.346,2.662,1.677c0,0,0.207,0.622,0.018,1.416
		c-0.191,0.799-0.155,1.504-0.018,2.197c0.139,0.694,0.727,1.347,1.402,1.887c0.675,0.538,2.629,1.47,4.531,1.59
		c1.902,0.121,2.489,0.02,2.489,0.02l0.708-0.728c0,0.005,0,0.01,0,0.015l-0.71,0.72c-0.042,0.19-0.086,0.398-0.137,0.599
		c-0.162,0.653-0.18,1.307-0.022,2.46c0.153,1.158,0.775,3.561,1.679,4.188c1.198,0.834,1.981,0.819,2.792,0.757
		c0.806-0.064,1.362-0.682,1.362-0.682s0.316-0.327,0.655-0.227c0.342,0.1,1.289,0.632,1.97,1.995
		c0.683,1.364,0.834,2.864-0.302,3.132c-1.136,0.261-3.094-0.81-3.094-0.81s-1.11-0.619-2.018,0.062
		c-0.911,0.683-0.936,1.729-0.48,3.016c0.249,0.706,0.748,1.854,1.447,3.051l0.676,0.283c-0.002-0.001-0.004-0.001-0.006-0.002
		l-0.678-0.283c-1.091-0.213-3.104-0.64-3.901-1.038c-0.313-0.157-0.56-0.235-0.736-0.334c-0.086-0.049-0.157-0.103-0.206-0.172
		c-0.082-0.118-0.111-0.28-0.078-0.55c0.098-0.735-0.72-1.757-0.72-1.757s-1.138-1.232-2.161-1.997
		c-1.023-0.77-1.459-0.54-1.459-0.54s-0.462,0.247-0.047,1.241c0.418,0.994,0.824,1.342,0.824,1.342s0.199,0.212,0.085,0.268
		c-0.112,0.059-0.464-0.209-0.755-0.458c-0.134-0.111-0.676-0.612-1.223-1.124C9.063,71.154,8.857,70.865,8.669,70.557z
		 M33.362,90.886c1.268,0.168,2.885,0.352,3.436,0.405l0.01-0.005c-0.005,0.086-0.04,0.177-0.091,0.295
		c-0.095,0.218,0.108,0.38,0.297,0.479C35.777,91.72,34.562,91.322,33.362,90.886z M37.385,91.027l-0.007-0.005l0.147,0.008
		c-0.117-0.105-0.266-0.203-0.431-0.3c-0.018-0.01-0.028-0.021-0.046-0.031c0.013,0.007,0.026,0.02,0.039,0.027
		c-0.052-0.03-0.099-0.063-0.156-0.092c-0.669-0.355-3.571-2.273-4.469-2.881c-0.6-0.405-1.497-0.99-2.236-1.273
		c-0.054-0.023-0.104-0.04-0.149-0.054c-0.303-0.102-0.573-0.147-0.771-0.087c-0.53,0.164-0.455,0.377-0.77,0.531
		c-0.236,0.111-0.485,0.084-0.917-0.107c-0.009-0.004-0.018-0.008-0.025-0.012c-0.145-0.064-0.307-0.146-0.497-0.248
		c-0.059-0.03-0.112-0.06-0.169-0.09c-0.092-0.048-0.183-0.097-0.271-0.146c-0.475-0.26-0.964-0.576-1.746-1.263
		c-0.069-0.062-0.135-0.118-0.21-0.186c-0.155-0.14-0.317-0.289-0.495-0.459c-1.193-1.134,1.526-0.112,1.526-0.112
		s0.592,0.25,0.328-0.369c-0.031-0.071-0.079-0.158-0.137-0.255c-0.03-0.052-0.071-0.112-0.109-0.169
		c-0.032-0.05-0.063-0.097-0.099-0.149c-0.052-0.075-0.11-0.155-0.171-0.235c-0.032-0.045-0.064-0.09-0.1-0.136
		c-0.067-0.089-0.139-0.18-0.211-0.274c-0.04-0.049-0.079-0.098-0.118-0.148c-0.074-0.093-0.15-0.186-0.229-0.281
		c-0.055-0.064-0.108-0.129-0.164-0.194c-0.07-0.084-0.14-0.167-0.213-0.252c-0.087-0.101-0.177-0.202-0.268-0.305
		c-0.046-0.052-0.09-0.103-0.136-0.154c-0.108-0.12-0.217-0.239-0.327-0.359c0.006,0.006,0.008,0.009,0.017,0.02
		c-0.199-0.218-0.401-0.433-0.602-0.64c-0.383-0.395-0.694-0.739-0.984-1.078c0.009,0.009,0.016,0.018,0.024,0.026
		c-0.5-0.58-0.915-1.138-1.366-1.791l-0.53-0.619c0.003,0.007,0.008,0.013,0.012,0.019l-0.021-0.023l-0.181,0.517
		c0.471,0.716,1.01,1.415,1.606,2.015c0,0,2.36,2.612,3.674,4.267c0,0,0.076,0.15-0.15,0.015c-0.229-0.14-1.213-0.594-1.743-0.541
		c-0.53,0.051-0.431,0.377-0.431,0.377s0.228,1.201,3.839,3.222c0,0,1.3,0.733,2.121,0.733c0,0,0.265,0.037,0.592-0.331
		c0.331-0.364,0.432-0.326,0.658-0.251c0.229,0.073,0.53,0.237,1.668,1.058c1.137,0.82,3.347,2.084,4.14,2.614
		c0.258,0.172,0.421,0.297,0.528,0.402c-1.623-0.13-3.404-0.342-4.341-0.476c-0.419-0.164-0.834-0.337-1.247-0.512
		c-0.198-0.121-0.431-0.262-0.66-0.399c-0.495-0.3-1.984-0.868-1.984-0.868s-0.154-0.06-0.365-0.138
		c-1.777-0.902-3.494-1.915-5.146-3.035c0.288,0.097,0.59,0.145,0.814,0.012c-0.054-0.543-0.673-0.982-1.026-1.249
		c-0.129-0.099-0.22-0.271-0.341-0.379c-0.454-0.401-0.984-0.79-1.478-1.138c-0.407-0.284-0.965-0.455-1.328-0.793
		c-0.01-0.082,0.117-0.284,0.039-0.493c-0.319-0.858-1.521-1.851-2.271-2.31c-0.348-0.216-0.931-0.313-1.249-0.531
		c-0.235-0.016-0.359-0.023-0.417,0.148c-0.094,0.209,0.2,0.499,0.301,0.646c0.261,0.364,0.558,0.79,0.911,1.057
		c0.264,0.2,0.564,0.375,0.793,0.607h0.114c-0.146-0.407-0.582-0.629-0.907-0.87c-0.299-0.22-0.431-0.604-0.683-0.87
		c0.021-0.119,0.033-0.11,0.076-0.19c1.048,0.009,1.726,0.969,2.196,1.591c0.21,0.278,0.547,0.441,0.569,0.91
		c-0.112,0-0.208,0-0.265-0.039h-0.114c0.181,0.499,0.789,0.458,1.213,0.722c0.851,0.525,1.535,1.349,2.271,2.004
		c0.25,0.225,0.688,0.447,0.757,0.836c-0.514-0.026-0.877-0.312-1.207-0.53c-0.039-0.026-0.09-0.063-0.131-0.09
		c-0.485-0.354-0.958-0.727-1.43-1.1c-0.145-0.138-0.275-0.274-0.371-0.402c-0.077-0.099-0.102-0.251-0.191-0.339
		c-0.104-0.106-0.25-0.14-0.34-0.264h-0.151c-0.006,0.069,0.017,0.131,0.035,0.193c-3.355-2.802-6.355-6.084-8.906-9.798
		c0.05,0.041,0.095,0.081,0.148,0.123c1.115,0.873,1.396,0.828,1.468,0.751c0.027-0.025,0.029-0.056,0.029-0.056
		s0.058-0.382-0.285-0.805c-0.095-0.115-0.204-0.272-0.312-0.438c-0.045-0.07-0.09-0.14-0.133-0.214
		c-0.131-0.224-0.244-0.455-0.299-0.648c-0.004-0.013-0.004-0.024-0.008-0.036c-0.013-0.054-0.023-0.105-0.026-0.15
		c-0.002-0.049,0.004-0.09,0.016-0.128c0.002-0.006,0.001-0.018,0.003-0.024c0.139-0.32,0.296-0.292,0.296-0.292
		s0.128-0.052,0.57,0.284c0.442,0.334,1.435,1.032,1.926,1.632c0.483,0.591,0.461,1.112,0.459,1.125
		c0,0.002-0.005,0.034-0.006,0.093c-0.004,0.176,0.036,0.591,0.438,1.031c0.532,0.578,1.659,1.641,5.608,2.248
		c0.021,0.005,0.039,0.005,0.059,0.009l0.183-0.521l0.004,0.006l0.002-0.004l0.008,0.009c0,0-0.002-0.003-0.003-0.004l0.534,0.623
		c0.006,0,0.01,0.001,0.016,0.002c3.438,0.496,5.307,0.539,5.307,0.539s4.508,0.157,5.727,0.157c1.036,0,1.025,0.458,0.999,0.595
		c-0.004,0.021-0.008,0.033-0.008,0.033s-0.068,0.345-0.215,0.619c-0.093,0.172-0.266,0.642-0.293,1.104
		c-0.018,0.278,0.018,0.553,0.154,0.761c0,0,0.56,1.365,4.194,1.462c0,0,3.182,0.256,5.402-0.658
		c0.697-0.287,0.976-0.609,1.032-0.916c0.133-0.671-0.816-1.271-0.816-1.271s-0.76-0.461-1.082-0.708
		c-0.146-0.112-0.19-0.226-0.19-0.332c0.002-0.104,0.044-0.199,0.073-0.277c0.058-0.155,0.284-0.34,0.54-0.471
		c0.253-0.128,1.188-0.625,5.135-1.648c3.948-1.021,6.306-1.132,6.306-1.132s0.021-0.002,0.037-0.004
		c0.379,0.918,0.67,1.425,1.247,2.054c0.62,0.674,1.601,1.198,2.758,1.641c1.161,0.442,0.634,1.227,0.634,1.227
		c-0.661,1.435-2.633,1.491-3.211,1.56c-0.579,0.067-1.792,0.18-2.927,0.428c-1.132,0.249-2.193,0.4-2.829,1.131
		c-0.632,0.731-0.384,1.49-0.011,2.291c0.37,0.798,1.364,1.226,2.73,1.174c1.364-0.056,2.249-0.456,3.076-0.815
		c0.826-0.358,2.261-0.773,2.69-0.896c0.426-0.124,1.006-0.373,1.434,0.249c0.461,0.671,0.951,1.624,1.177,2.346l0.524-0.116
		c0,0.002,0,0.004,0.001,0.006c-0.094,0.021-0.177,0.039-0.244,0.054c-0.158,0.033-0.242,0.057-0.242,0.057
		s-1.161,0.279-3.091,1.026c-1.93,0.749-5.717,1.368-5.717,1.368s-1.232,0.144-2.025,0.341c0.092-0.031,0.169-0.047,0.169-0.047
		s0.916-0.186,1.836-0.307c0,0-2.435,0.28-2.659,0.598c-0.078,0.126-0.067,0.226-0.024,0.302c0.06,0.127,0.216,0.191,0.216,0.191
		s0.346,0.214,1.598,0.27c0,0,0.433,0,0.452,0.036c0.001,0.001,0.001,0.003,0.001,0.003c0.005,0.009,0.009,0.019,0.007,0.027
		c0,0.003-0.003,0.007-0.004,0.01c-0.008,0.014-0.025,0.03-0.066,0.049c-0.037,0.017-0.085,0.035-0.163,0.06
		c-0.273,0.085-0.817,0.301-2.658,0.534c-1.218,0.154-1.613,0.079-1.745,0.008c0,0,0,0,0.001,0c-0.075-0.038-0.07-0.076-0.07-0.076
		s-0.001-0.02,0.005-0.05c0.009-0.034,0.027-0.086,0.068-0.152c0.021-0.032,0.032-0.071,0.032-0.113
		c0.003-0.126-0.092-0.283-0.312-0.404c0.002-0.002-0.072-0.048-0.259-0.103c0,0,0.016,0.006,0.033,0.018
		c-0.242-0.073-0.708-0.167-1.526-0.161c-1.347,0.009-4.031,0.017-6.541-0.133C37.498,91.034,37.439,91.03,37.385,91.027z
		 M43.318,93.357c-0.834-0.114-1.662-0.245-2.485-0.401c0.497-0.026,0.838-0.048,1.262,0.04c0.604,0.127,1.226,0.278,1.287,0.33
		C43.404,93.344,43.366,93.353,43.318,93.357z M53.142,93.704c0.656-0.087,1.443-0.137,1.881-0.184
		c0.186-0.021,0.308-0.024,0.394-0.022C54.663,93.586,53.904,93.653,53.142,93.704z M56.582,93.357
		c-0.053-0.035-0.186-0.065-0.49-0.078c-0.274-0.012-0.554-0.01-0.836,0c-0.399,0.001-0.92,0.02-1.395,0.088
		c-0.33,0.046-0.66,0.102-0.95,0.152c-0.093,0.013-0.185,0.023-0.276,0.037c-0.617,0.089-0.896,0.168-1.022,0.225
		c-0.537,0.019-1.074,0.039-1.615,0.039c-1.931,0-3.837-0.127-5.72-0.346c0.058-0.059-0.076-0.136-0.167-0.179
		c-0.046-0.022-0.084-0.038-0.084-0.038s-0.084-0.039-0.255-0.098c-0.001,0.001-0.003,0.001-0.004,0.002
		c-0.018-0.006-0.033-0.012-0.053-0.018c0.008,0.002,0.021,0.004,0.029,0.006c-0.096-0.031-0.225-0.068-0.37-0.107
		c-0.004-0.001-0.009-0.002-0.014-0.004c-0.111-0.028-0.233-0.059-0.372-0.088c-0.003-0.002-0.005-0.002-0.007-0.002
		c-0.288-0.063-0.631-0.126-1.046-0.177c0.014,0.003,0.027,0.005,0.042,0.008c-0.218-0.027-0.45-0.053-0.703-0.072
		c0,0-0.77-0.053-1.439,0.013c-0.028,0.003-0.058,0.001-0.086,0.003c0.004-0.001,0.011-0.002,0.015-0.003
		c-0.009,0.001-0.019,0-0.027,0c-0.496-0.106-0.991-0.217-1.483-0.338c-0.274-0.111-0.676-0.318-0.514-0.532
		c0.119-0.158,0.131-0.321,0.062-0.48c1.057,0.065,2.445,0.14,2.445,0.14s2.849,0.106,4.408-0.02
		c0.701-0.06,0.484,0.305,0.484,0.305s-0.204,0.339,0.198,0.506c0,0,0.737,0.42,3.199,0.15c2.463-0.273,3.005-0.825,3.005-0.825
		s0.285-0.263-0.337-0.38c-0.036-0.008-0.065-0.013-0.098-0.019c-0.014-0.005-0.033-0.013-0.039-0.015c-0.006,0-0.013,0-0.019-0.003
		c-0.008-0.002-0.015-0.002-0.02-0.004c-0.007,0-0.009-0.002-0.012-0.002c-0.006-0.001-0.014-0.001-0.021-0.003
		c-0.003,0-0.008,0-0.014-0.002c-0.005,0-0.01-0.002-0.016-0.002c-0.004,0-0.012-0.002-0.018-0.004c-0.004,0-0.011,0-0.015,0
		c-0.007-0.003-0.013-0.003-0.017-0.005c-0.004,0-0.012,0-0.015-0.002c-0.006,0-0.012,0-0.017,0
		c-0.002-0.004-0.009-0.004-0.011-0.004c-0.011-0.001-0.015-0.003-0.02-0.003c-0.004,0-0.006,0-0.008,0
		c-0.01-0.001-0.021-0.001-0.027-0.002c0,0-0.003,0-0.004-0.002c-0.006,0-0.014,0-0.021,0c-0.004-0.002-0.006-0.002-0.011-0.002
		s-0.011,0-0.02,0c-0.004,0-0.006,0-0.008,0c-0.007-0.002-0.012-0.002-0.018-0.002c-0.003,0-0.007,0-0.009,0
		c-0.007,0-0.014-0.003-0.018-0.003s-0.008-0.002-0.011-0.002c-0.007,0-0.015,0-0.02,0s-0.005,0-0.007,0
		c-0.037-0.004-0.076-0.004-0.122-0.009c-0.002,0-0.004,0-0.004,0c-0.009,0-0.015-0.002-0.021-0.002c-0.002,0-0.008,0-0.012,0
		c-0.006,0-0.012,0-0.021,0c-0.004-0.002-0.009-0.002-0.013-0.002c-0.006,0-0.013-0.002-0.019-0.002c-0.005,0-0.012,0-0.016-0.002
		c-0.005,0-0.011,0-0.019,0c-0.009,0-0.019-0.002-0.026-0.004c-0.006,0-0.012,0-0.019,0c-0.008,0-0.017-0.002-0.027-0.002
		c-0.004,0-0.01-0.002-0.015-0.002c-0.009,0-0.018,0-0.023-0.001c-0.005-0.001-0.012-0.001-0.02-0.001
		c-0.007-0.002-0.018-0.002-0.025-0.004c-0.005,0-0.012,0-0.019,0c-0.008-0.002-0.018-0.003-0.025-0.003
		c-0.006-0.001-0.016-0.001-0.021-0.003c-0.009,0-0.019-0.003-0.026-0.003c-0.007-0.002-0.013-0.002-0.021-0.002
		c-0.011,0-0.022-0.002-0.033-0.004c-0.006,0-0.014,0-0.019,0c-0.019-0.004-0.036-0.006-0.055-0.006
		c-0.136-0.019-0.26-0.031-0.362-0.053l-0.151-0.02c-0.232-0.065-0.273-0.147,0.001-0.22c0.421-0.109,1.123-0.168,1.123-0.168
		s2.153-0.3,3.892-0.749c0,0,1.856-0.438,3.696-1.086c0.724-0.253,1.335-0.438,1.807-0.572l0.417-0.613c0,0.001,0,0.003,0,0.003
		l-0.41,0.606c0.092,0.626-0.1,0.837-0.243,1.07c-0.149,0.249-0.564,0.567-0.358,1.134c0.208,0.565,1.614,0.385,2.427,0.139
		c0.815-0.249,1.501-0.47,2.041-0.664c0.539-0.188,0.689,0.082,0.689,0.082s0.235,0.168-0.55,0.581
		c-0.173,0.091-0.38,0.169-0.602,0.24c-0.031,0.009-0.054,0.019-0.087,0.028c-0.174,0.054-0.358,0.099-0.543,0.141
		c-0.048,0.011-0.097,0.022-0.146,0.032c-0.154,0.033-0.307,0.063-0.457,0.089c-0.063,0.012-0.124,0.021-0.187,0.032
		c-0.124,0.02-0.244,0.038-0.357,0.054c-0.067,0.011-0.134,0.02-0.196,0.028c-0.125,0.016-0.252,0.033-0.35,0.044
		c-0.085,0.011-0.155,0.017-0.217,0.022c-0.038,0.003-0.07,0.005-0.103,0.007c-0.021,0.002-0.045,0.004-0.064,0.005
		c-0.041,0.003-0.079,0.004-0.114,0.007c-0.026,0.002-0.053,0.005-0.078,0.008c-0.013,0.002-0.025,0.003-0.038,0.005
		c-0.033,0.003-0.069,0.011-0.106,0.019c-0.007,0.001-0.013,0.002-0.019,0.004c-0.153,0.032-0.366,0.097-0.779,0.24
		c-1.035,0.36-0.067,0.677-0.067,0.677c0.522,0.136,1.005,0.21,1.45,0.254C59.562,92.868,58.081,93.148,56.582,93.357z
		 M76.336,85.874c-0.019,0.021-0.042,0.042-0.062,0.063c-4.336,2.836-9.138,4.994-14.245,6.328c-0.457-0.036-0.779-0.1-0.945-0.122
		c-0.412-0.056-0.745-0.138-0.842-0.346c-0.013-0.025-0.014-0.047-0.009-0.065c0.042-0.136,0.465-0.125,0.465-0.125H60.7
		c0,0,0.089-0.011,0.229-0.03c0.417-0.056,1.354-0.201,2.335-0.472c0.179-0.049,0.359-0.102,0.537-0.159
		c1.49-0.484,1.849-0.938,1.791-1.283c-0.009-0.051-0.036-0.092-0.074-0.126c-0.012-0.012-0.028-0.021-0.043-0.031
		c-0.031-0.021-0.07-0.037-0.114-0.052c-0.021-0.006-0.042-0.013-0.065-0.019c-0.061-0.012-0.128-0.019-0.203-0.021
		c-0.014-0.001-0.024-0.003-0.038-0.003c-0.087,0-0.184,0.008-0.285,0.021c-0.017,0.001-0.028,0-0.045,0.002
		c0.009-0.001,0.016,0.001,0.023,0c-0.255,0.032-0.55,0.1-0.864,0.201c-0.896,0.293-2.234,0.718-2.548,0.786
		c-0.078,0.017-0.156,0.028-0.233,0.034c0.008-0.002,0.012-0.002,0.02-0.004c-0.115,0.009-0.224,0.002-0.318-0.021
		c-0.013-0.003-0.026-0.007-0.039-0.012c-0.088-0.026-0.163-0.068-0.203-0.136c-0.001-0.001-0.002-0.001-0.002-0.001
		c-0.11-0.196-0.208-0.508,0.139-0.867c0.345-0.36,0.385-0.664,0.385-0.664c0.034-0.157,0.04-0.322,0.036-0.488
		c0-0.042-0.004-0.083-0.007-0.125c-0.004-0.051-0.002-0.1-0.009-0.151c0.06-0.013,0.096-0.019,0.096-0.019s2.208-0.516,3.133-0.673
		c0.926-0.16,3.02-0.61,3.914-1.039c0.888-0.431,1.335-0.771,1.44-1.03c0.102-0.26-0.377-0.411-0.377-0.411
		s-0.563-0.133-0.486-0.326c0.072-0.196,0.28-0.366,1.161-0.76c0.879-0.393,1.981-0.821,3.089-1.095
		c1.104-0.27,0.701,0.186,0.701,0.186s-0.662,0.675-0.75,0.938c-0.082,0.261,0.028,0.272,0.114,0.319
		c0.084,0.047,0.618,0.025,0.979-0.065c0.366-0.094,3.315-1.216,5.112-2.246c0.047-0.025,0.09-0.052,0.133-0.076l0.374-0.623
		l0.002,0.001c-0.001,0.002-0.001,0.001-0.002,0.003c-0.02,0.032-0.03,0.056-0.049,0.087c-0.537,0.868-0.761,1.368-0.761,1.368
		s-0.273,0.526-0.299,0.826c-0.024,0.301-0.242,0.26-0.242,0.26s-0.459-0.024-1.119,0.257c-0.02,0.008-0.034,0.012-0.056,0.019
		c0,0-0.027,0.015-0.074,0.038c-0.214,0.102-0.447,0.242-0.69,0.42c-0.046,0.031-0.086,0.056-0.134,0.089
		c-0.026,0.021-0.056,0.04-0.079,0.06c-0.705,0.579-1.193,1.071-1.469,1.375c-0.013,0.017-0.024,0.033-0.036,0.049
		c-0.146,0.163-0.222,0.259-0.222,0.259s-0.407,0.54-0.015,0.54c0.392,0,1.313-0.475,1.666-0.786
		C76.513,85.614,76.336,85.874,76.336,85.874z M84.799,78.717c-0.617,0.683-0.927,0.965-0.927,0.965s-0.107,0.109-0.221,0.245
		l-0.012,0.013c-0.001,0.005-0.005,0.012-0.011,0.014h0.001c-0.077,0.094-0.149,0.194-0.193,0.284
		c-2.018,1.937-4.195,3.704-6.517,5.273c0.047-0.077,0.07-0.14,0.038-0.164h-0.002c-0.001-0.001,0-0.003,0-0.003
		c-0.123-0.097-0.598,0.245-0.598,0.245s-0.069,0.06-0.177,0.136l0.003-0.002c-0.132,0.096-0.317,0.22-0.507,0.316
		c-0.054,0.025-0.106,0.051-0.157,0.07c-0.032,0.013-0.063,0.024-0.094,0.033c-0.069,0.021-0.138,0.035-0.193,0.031
		c-0.378-0.031,0.459-0.829,0.459-0.829s0.487-0.548,1.079-0.885c0.198-0.112,0.408-0.201,0.614-0.238
		c0.825-0.149,0.979-0.355,1.382-0.664c0.136-0.104,0.234-0.215,0.334-0.367c0.203-0.304,0.417-0.785,0.97-1.792
		c0.032-0.057,0.065-0.112,0.096-0.17h0.001c1.057-0.591,1.433-0.774,1.684-0.922c1.132-0.673,2.481-1.496,2.836-1.775
		C84.688,78.531,85.416,78.035,84.799,78.717z M91.636,69.903c0.291-0.632,0.53-1.305,0.821-1.959
		c0.288-0.654,0.703-1.296,0.681-2.234c-0.045-0.043-0.08-0.098-0.111-0.151h-0.23c-0.229,0.195-0.546,0.284-0.795,0.455
		c-0.384,0.271-0.726,0.632-1.098,0.91c-0.168,0.128-0.415,0.242-0.53,0.417c-0.191,0.286-0.154,0.772-0.38,1.021v0.15
		c0.301-0.109,0.444-0.463,0.683-0.643c0.293-0.221,0.538-0.515,0.832-0.722c0.185-0.129,0.395-0.198,0.568-0.341
		c0.12,0.022,0.111,0.036,0.191,0.078c-0.02,0.962-0.526,1.641-0.834,2.349c-0.089,0.206-0.116,0.527-0.265,0.68
		c-0.071,0.072-0.219,0.09-0.3,0.15c-0.254,0.279-0.506,0.556-0.76,0.836c-0.24,0.329-0.35,0.769-0.606,1.097
		c-0.002,0.109-0.002,0.206,0.036,0.265c0.039,0.029,0.105,0.056,0.153,0.076c0.415-0.395,0.817-0.739,1.178-1.173
		c-1.641,2.584-3.521,4.998-5.604,7.223c0.043-0.055,0.086-0.108,0.125-0.16c0.021-0.026,0.033-0.046,0.049-0.069
		c0.291-0.404,0.087-0.384,0.087-0.384s-0.063-0.009-0.247,0.063c-0.027,0.011-0.056,0.022-0.091,0.038
		c-0.016,0.007-0.024,0.01-0.043,0.018l0.001,0.002c-0.138,0.065-0.32,0.164-0.569,0.321c-0.766,0.486-1.309,0.822-1.309,0.822
		s-1.647,0.943-2.693,1.554c-0.009,0.005-0.021,0.012-0.03,0.018c0.002-0.003,0.003-0.005,0.005-0.007
		c0.008-0.006,0.021-0.012,0.028-0.017c-0.008,0.005-0.021,0.011-0.028,0.016c0.754-1.175,1.642-2.2,2.317-2.955
		c0.826-0.919,1.817-2.415,1.817-2.415s0.614-1.055,0.637-1.541c0.003-0.069-0.005-0.129-0.028-0.171
		c-0.012-0.02-0.043-0.016-0.062-0.028c-0.021-0.012-0.039-0.03-0.07-0.031c-0.23-0.036-0.722,0.213-1.482,0.779
		c-0.686,0.513-1.242,0.863-1.703,1.108c-0.021,0.009-0.04,0.015-0.06,0.022c0.02-0.009,0.04-0.019,0.06-0.028
		c-0.262,0.119-0.529,0.211-0.764,0.235c-0.615,0.067-0.832-0.301-0.892-0.696c-0.034-0.236-0.013-0.482,0.012-0.649
		c0.067-0.45,0.299-1.479,1.017-1.887c0.718-0.409,1.722-0.394,2.426-0.492c0.706-0.095,1.03-0.297,1.03-0.297
		s1.152-0.732,1.912-1.965c0.761-1.236,1.439-3.229,1.518-5.207c0.001-0.022-0.002-0.041-0.001-0.063
		c0.006-0.195,0.002-0.377-0.009-0.55c-0.004-0.065-0.011-0.127-0.018-0.19c-0.013-0.13-0.03-0.254-0.051-0.37
		c-0.01-0.052-0.018-0.104-0.029-0.152c-0.032-0.148-0.068-0.288-0.111-0.415l0.004,0.001c1.893-1.506,3.704-3.419,3.704-3.419
		s1.203-1.207,1.808-2.256c0.046-0.08,0.082-0.134,0.114-0.18c0.01-0.014,0.02-0.025,0.028-0.037
		c0.025-0.03,0.047-0.054,0.063-0.063c0.002-0.001,0.005-0.005,0.007-0.006c0.017-0.007,0.028,0.001,0.036,0.017
		c0.002,0.005,0.003,0.01,0.004,0.016c0.005,0.02,0.007,0.044,0.005,0.076c0,0.006-0.002,0.015-0.002,0.02
		c-0.001,0.002-0.002,0.008-0.002,0.008s-0.491,1.38-0.318,2.066c0,0.005,0,0.011,0,0.016c-0.002-0.005-0.005-0.009-0.006-0.014
		c0.001,0.014,0.005,0.026,0.006,0.041c0.007,0.14,0.026,0.275,0.056,0.404c0.009,0.04,0.021,0.076,0.033,0.113
		c0.041,0.136,0.096,0.261,0.179,0.354c0.001,0.003,0.001,0.006,0.003,0.008c0.017,0.017,0.039,0.017,0.057,0.028
		c0.424,0.292,1.44-0.789,1.44-0.789s0.659-0.755,0.924-1.973c0.244-1.121,0.252-1.683,0.224-1.944
		c-0.016-0.159-0.045-0.209-0.045-0.209s-0.237-0.372-0.089-0.817c0.011-0.034,0.035-0.101,0.056-0.158
		c0.242-0.66,1.062-2.689,1.771-3.586C97.366,57.44,95.098,64.063,91.636,69.903z M90.752,70.672
		c-0.049,0.376-0.335,0.713-0.607,0.873v0.038h-0.039c0.067-0.455,0.412-0.581,0.57-0.911H90.752z M93.632,57.557
		c-0.041,0.153-0.073,0.266-0.073,0.266s-0.005,0.024-0.01,0.047c0.004-0.018,0.01-0.049,0.01-0.049S93.591,57.709,93.632,57.557z
		 M98.232,48.54L98,48.931c-0.076,0.129-0.088,0.286-0.031,0.425l0.104,0.256c-0.005,0.007-0.008,0.013-0.013,0.021
		c-0.002,0.002-0.004,0.004-0.006,0.006c-0.013,0.021-0.029,0.048-0.043,0.069c-0.175,0.276-0.39,0.623-0.654,1.06
		c-1.212,1.997-1.404,3.609-1.404,3.609s-0.114,0.625-0.051,0.99c0.013,0.072,0.028,0.134,0.045,0.19
		c0.002,0.005,0.003,0.011,0.004,0.016c0.018,0.057,0.035,0.105,0.053,0.148c0,0.002,0.001,0.005,0.002,0.007
		c0,0.001,0,0.001,0.001,0.002c0.021,0.054,0.041,0.102,0.055,0.14c0.003,0.007,0.004,0.012,0.006,0.019
		c0.009,0.026,0.018,0.052,0.019,0.073c0.004,0.045-0.012,0.24-0.066,0.508c-0.01,0.051-0.022,0.102-0.035,0.156
		c-0.011,0.046-0.021,0.092-0.036,0.141c-0.028,0.105-0.063,0.217-0.104,0.332c-0.013,0.038-0.03,0.077-0.045,0.115
		c-0.05,0.129-0.106,0.261-0.175,0.393c-0.009,0.017-0.016,0.035-0.025,0.053c-0.42,0.779-0.78,0.987-0.78,0.987
		s-0.724,0.521-0.823,0.15c-0.1-0.373-0.071-0.689-0.034-0.925c0.034-0.237,0.277-1.512,0.241-1.983
		c-0.033-0.474-0.458-0.094-0.458-0.094s-0.099,0.114-0.285,0.35c-0.186,0.237-1.232,1.567-1.632,2.034
		c-0.946,1.108-1.806,1.904-4.108,3.763c-0.008,0.003-0.015,0.01-0.019,0.014c-0.007-0.01-0.013-0.017-0.02-0.026
		c-0.088-0.144-0.173-0.264-0.253-0.366c-0.101-0.132-0.191-0.239-0.251-0.317c-0.271-0.35-0.766-0.194-1.37-1.655
		c-0.604-1.455-0.744-2.695-0.731-3.555c0.002-0.122,0.006-0.235,0.013-0.341c0.056-0.852,0.26-1.178,0.652-1.545
		c0.394-0.366,2.13-0.203,2.13-0.203s0.852,0.176,1.615-1.087c0.563-0.938,0.678-2.318,0.599-3.388
		c-0.027-0.37-0.077-0.705-0.141-0.97c-0.243-1.03-0.597-1.928-2.008-2.075c-1.408-0.146-2.046,1.589-2.046,1.589
		s-0.285,0.663-0.583,1.045c-0.298,0.378-1.11,0.272-1.11,0.272c-0.354-0.043-0.785,0.095-1.21-0.775
		c-0.419-0.867-1.38-3.145-1.38-3.145c-0.325-0.775-0.532-1.448-0.658-1.968l-0.692-0.284l-0.002-0.003l0.692,0.28
		c0.977-0.538,2.646-1.513,3.839-2.519c1.791-1.506,3.541-3.087,3.987-3.482c0.445-0.4,0.855-0.72,1.251-0.701
		c0.396,0.021,0.701,0.303,0.946,1.372c0.247,1.07,0.296,1.951,0.407,2.472c0.112,0.52,0.273,1.125,0.893,1.249
		c0.618,0.123,1.448-0.416,1.759-0.683c0.08-0.067,0.177-0.174,0.275-0.314c0.005-0.007,0.011-0.017,0.017-0.024
		c0.042-0.062,0.084-0.126,0.126-0.199c0.239-0.417,0.454-1.027,0.431-1.751c0,0,0.064-1.536-0.729-2.993
		c0,0-0.334-0.588-0.457-0.749c-0.084-0.114-0.148-0.229-0.008-0.501c0.034-0.067,0.079-0.149,0.136-0.24
		c0.173-0.274,0.449-0.62,0.875-0.859c0.429-0.245,0.842-0.303,1.079-0.38c0,0,0.264-0.063,0.6-0.248l-0.002-0.006
		c0,0,0.002-0.001,0.003-0.002c0.004,0.01,0.007,0.019,0.009,0.027c0.504,1.57,1.085,4.182,1.085,4.182s0.18,0.769,0.198,1.123
		c0.021,0.355-0.06,0.364-0.219,0.178c-0.157-0.187-0.315-0.069-0.315-0.069s-0.167,0.069-0.167,0.74s0.08,2.246,0.207,3.461
		c0.146,1.44,0.59,2.042,0.59,2.042s0.396,0.592,0.504-0.552c0.004-0.043,0.008-0.065,0.013-0.101
		c0.017,0.526,0.05,1.052,0.05,1.579C98.328,46.487,98.296,47.514,98.232,48.54z"/>
	<path opacity="0.88" enable-background="new    " d="M23.627,80.798c0.052,0.056,0.102,0.112,0.153,0.168
		c-0.007-0.008-0.015-0.019-0.015-0.019L23.627,80.798z"/>
	<polygon opacity="0.88" enable-background="new    " points="16.072,35.856 16.073,35.856 16.072,35.856 	"/>
	<polygon opacity="0.88" enable-background="new    " points="53.529,74.729 53.532,74.729 53.529,74.728 	"/>
	<path opacity="0.88" enable-background="new    " d="M74.544,72.869c-1.104-0.273-2.034,0.273-3.183,0.19
		c-0.109-0.115-0.191-0.182-0.264-0.341c-0.799,0.023-1.682,1.805-0.87,2.348c0.434,0.295,1.669,0.124,2.196,0
		c0.294-0.067,0.75-0.133,0.983,0.037c0.318,0.236,0.262,1.131,0.151,1.63c-0.127,0.934-0.254,1.868-0.379,2.804
		c-0.112,0.567-0.227,1.134-0.342,1.703c0.581-0.003,1.128-0.597,1.291-1.023c0.096-0.247,0.045-0.48,0.114-0.757
		c0.2-0.795,0.227-1.743,0.417-2.575c0.121-0.538,0.039-1.053,0.149-1.552c0.083-0.376,0.137-1.622,0.04-1.971
		C74.791,73.17,74.643,73.019,74.544,72.869z"/>
	<path opacity="0.88" enable-background="new    " d="M20.873,9.24V9.164h-0.151c-0.178,0.13-0.646,0.209-0.869,0.339
		c0.03,0.13,0.019,0.097,0.113,0.151c-0.133,0.369-0.572,0.645-0.797,0.949c-0.354,0.479-0.751,0.926-1.099,1.401
		c-0.117,0.157-0.195,0.402-0.34,0.529c-0.227,0.198-0.874,0.177-1.135,0.378H16.52c0.054-0.317,0.869-1.332,1.099-1.552v-0.038
		c-0.391,0.055-0.693,0.261-0.948,0.452c0.043,0.087,0.036,0.07,0.116,0.115c-0.14,0.229-0.346,0.397-0.493,0.605
		c-0.189,0.264-0.292,0.576-0.492,0.834c0.014,0.038,0.026,0.074,0.037,0.113c0.242-0.021,1.25-0.341,1.401-0.453h0.111
		c-0.152,0.46-0.755,1.092-1.021,1.515c-0.149,0.237-0.241,0.547-0.453,0.72c0.035,0.041-0.004,0.001,0.037,0.037
		c0.084,0.051,0.778-0.133,0.91-0.226c0.079,0.014,0.072,0.011,0.114,0.037c0.041,0.066-0.46,0.949-0.569,1.062v0.039
		c0.188-0.022,0.48-0.054,0.606-0.153c0.367-0.286,0.451-0.897,0.719-1.289c-0.013-0.063-0.024-0.126-0.039-0.188
		c-0.212-0.038-0.651,0.02-0.832,0.151h-0.038c0.088-0.454,0.831-1.289,1.098-1.668c0.435-0.619,0.843-1.214,1.287-1.818
		c0.233-0.316,0.56-0.595,0.796-0.908C20.229,9.949,20.51,9.485,20.873,9.24z"/>
	<path opacity="0.88" enable-background="new    " d="M31.363,72.641c-0.058,0.129-0.05,0.339-0.111,0.492
		c-0.328,0.804-0.436,0.973,0.075,1.742c0.228,0,0.257-0.035,0.379-0.113C31.857,74.133,31.881,72.937,31.363,72.641z"/>
	<path opacity="0.88" enable-background="new    " d="M32.957,71.96c-0.158-0.259-0.47-0.327-0.683-0.53
		c-0.066-0.022-0.038-0.008-0.076-0.037c0.488-0.253,1.008-0.531,1.516-0.757c0.137,0.15,0.767,0.759,0.985,0.643
		c0.037-0.012,0.074-0.022,0.112-0.036c-0.013-0.215-0.023-0.43-0.038-0.645c-0.479-0.477-1.182-0.871-1.971-1.021v0.037h-0.038
		c0.089,0.262,0.381,0.511,0.608,0.644v0.113c-0.448,0.065-0.847,0.282-1.25,0.419c-0.277,0.089-0.611,0.077-0.836,0.225h-0.112
		c0.165-0.458,0.706-0.834,0.984-1.213c0.551-0.743,0.988-1.653,1.857-2.083c-0.023-0.35-1.03-1.071-1.402-0.833
		c-0.093,0.048-0.028-0.02-0.074,0.073c-0.058,0.139,0.131,0.309,0.074,0.531c-0.073,0.292-0.794,1.666-0.985,1.819v0.039
		c-0.39-0.134-0.686-0.501-1.059-0.683c0.066-0.349,0.358-0.617,0.529-0.871c0.435-0.655,0.782-1.278,1.44-1.706
		c-0.006-0.504-0.819-1.029-1.365-1.02c0.002,0.231,0.12,0.362,0.077,0.566c-0.134,0.618-0.417,1.241-0.644,1.781
		c-0.149,0.349-0.217,0.765-0.456,1.02c-0.051,0.029-0.471-0.006-0.568-0.073c-0.143-0.002-0.285,0.005-0.377,0.036v0.076
		c0.638,0.617,1.327,0.828,2.197,1.214c-0.121,0.627-0.753,1.045-1.062,1.516c-0.159,0-0.287-0.01-0.378-0.076
		c-0.088,0.017-0.093,0.021-0.151,0.039c0.016,0.557,0.479,1.031,0.945,1.137c0.313-0.35,0.706-0.52,1.175-0.718
		c0.431,0.447,0.554,1.088,0.72,1.815c0.071,0.317-0.046,0.667,0.038,0.945c0.146,0.492,0.407,0.639,0.643,0.983H33.6
		c0.166-0.891-0.242-1.753-0.454-2.461C33.083,72.568,33.021,72.264,32.957,71.96z"/>
	<path opacity="0.88" enable-background="new    " d="M42.498,88.66c0.287,0.104,0.521,0.385,0.796,0.531
		c0.729,0.381,1.935,0.695,3.031,0.456c0.538-0.12,1.095-0.12,1.248-0.608c0.17-0.266-0.065-0.639-0.149-0.79
		c-0.354-0.632-0.819-1.044-1.402-1.44c-1.929-1.319-4.772-2.655-8.067-2.573c-0.16,0.101-0.481,0.02-0.681,0.074
		c-0.275,0.072-0.444,0.214-0.643,0.34c-0.008,0.93,1.383,1.433,2.158,1.626c0.463,0.117,0.87-0.101,1.138-0.189
		c0.205-0.786-0.743-0.899-1.175-1.289h-0.078V84.76c2.906-0.114,5.082,0.697,6.742,1.934c0.415,0.309,0.89,0.749,1.099,1.25
		c0.078,0.186,0.11,0.493,0,0.646c-0.152,0.421-0.656,0.384-1.137,0.493c-1.112,0.256-2.638-0.374-3.145-0.871
		c-0.104,0.181,0.047,0.459-0.114,0.646c-0.168,0.457-0.753,0.338-1.288,0.453c-0.876,0.19-2.252-0.259-2.764-0.604
		c-0.144-0.1-0.246-0.274-0.379-0.38c-0.008-0.098-0.018-0.13-0.039-0.19c0.076-0.069,0.169-0.179,0.226-0.263
		c1.091-0.081,1.646-0.025,2.275,0.571c-0.017,0.073-0.01,0.068-0.04,0.108c-0.069,0.146-0.234,0.162-0.453,0.154v0.069
		c0.399,0.005,0.567-0.056,0.795-0.188c0.012-0.076,0.026-0.152,0.038-0.226c-0.13-0.135-0.222-0.313-0.38-0.419
		c-0.621-0.409-1.905-0.614-2.611-0.15c-0.111,0.538,0.222,0.828,0.53,1.058c0.618,0.468,1.14,0.738,2.008,0.985
		c0.278,0.078,0.527,0.008,0.834,0.073c0.268,0.062,0.732,0.075,1.022,0c0.482-0.123,1.153-0.63,0.604-1.214V88.66z M39.014,85.064
		c0.134,0.091,0.211,0.279,0.341,0.38c-0.003,0.095-0.004,0.142-0.037,0.19c-0.247,0.668-1.635,0.174-1.971-0.077
		c-0.104-0.077-0.146-0.237-0.227-0.34c0.015-0.078,0.01-0.073,0.039-0.11c0.104-0.293,0.4-0.194,0.644-0.339
		C38.283,84.768,38.717,84.863,39.014,85.064z"/>
	<path opacity="0.88" enable-background="new    " d="M52.348,92.562c0.014-0.035,0.023-0.073,0.037-0.111
		c-0.934-0.038-1.87-0.075-2.802-0.113c-0.118,0.078-0.299,0.033-0.454,0.075c-0.194,0.057-0.408,0.145-0.568,0.229
		c0.024,0.064,0.008,0.037,0.038,0.074c0.229,0.18,1.555,0.19,1.818,0h0.075v-0.074c-0.4-0.127-1.133,0.192-1.438,0h-0.039v-0.039
		c1.006-0.069,2.134-0.042,3.183-0.038c-0.101,0.069-0.314,0.049-0.417,0.114c-0.038,0.013-0.075,0.025-0.112,0.037v0.077
		c0.228,0.034,0.454,0.073,0.681,0.111c0.035,0.039-0.004,0.003,0.037,0.035c-0.335,0.224-1.2,0.134-1.514-0.035v-0.077
		c-0.17-0.078-0.948,0.08-1.099,0.112c-0.127,0.029-0.259-0.014-0.342,0.037c-0.158,0.01-0.174,0.027-0.264,0.076
		c0.021,0.122,0.033,0.11,0.076,0.188c0.243,0.059,0.666,0.063,0.944,0.149v-0.037h0.039v-0.037
		c-0.142-0.055-0.536-0.023-0.683-0.109h-0.076c0.127-0.101,1.364-0.267,1.592-0.114c0.064,0.021,0.037,0.007,0.076,0.037
		c-0.202,0.037-0.406,0.077-0.607,0.111c0.024,0.063,0.009,0.037,0.039,0.075c0.062,0.043,0.185,0.043,0.302,0.037
		c-0.038,0.071-0.052,0.104-0.114,0.151c0.013,0.022,0.026,0.049,0.039,0.075c0.536,0,0.986-0.055,1.438-0.149
		c0.269-0.06,0.598,0.05,0.795-0.077h0.305v-0.075c-0.517-0.001-1.805-0.052-2.12,0.152H51.1c0.031-0.041-0.004-0.004,0.035-0.04
		c0.149-0.172,0.451-0.086,0.718-0.149c0.422-0.099,1.118-0.271,1.479,0c0.1,0.063,0.037-0.007,0.037,0.112
		c0.102-0.002,0.173-0.002,0.227-0.033h0.264V93.24c-0.343-0.084-0.852-0.239-1.137-0.415C52.56,92.727,52.635,92.588,52.348,92.562
		z"/>
	<path opacity="0.88" enable-background="new    " d="M93.478,63.062c-0.136,0.124-0.338,0.155-0.491,0.265
		c-0.479,0.344-0.981,0.92-1.326,1.4c-0.275,0.386-0.511,0.807-0.757,1.214c-0.107,0.18-0.131,0.385-0.266,0.529v0.076
		c0.331-0.056,0.525-0.271,0.759-0.417c0.631-0.391,1.195-0.748,1.778-1.172c0.282-0.208,0.493-0.528,0.795-0.722
		c0.028-0.453,0.12-0.809-0.075-1.138C93.777,63.074,93.643,63.06,93.478,63.062z M93.024,64.423
		c-0.229,0.169-0.449,0.405-0.682,0.569c-0.199,0.141-0.438,0.215-0.605,0.38h-0.039c0.125-0.391,0.783-1.061,1.098-1.286
		c0.162-0.12,0.366-0.15,0.532-0.268h0.149c0.035,0.044,0.033,0.042,0.077,0.076C93.52,64.18,93.211,64.282,93.024,64.423z"/>
	<path opacity="0.88" enable-background="new    " d="M74.163,85.444h-0.38c-0.25,0.2-0.662,0.226-0.947,0.38
		c-0.253,0.134-0.557,0.317-0.794,0.492c-0.198,0.141-0.313,0.4-0.495,0.566c0.004,0.188,0.008,0.22,0.154,0.266
		c0.037,0.027,0.009,0.018,0.071,0.038c0.04-0.045,0.077-0.06,0.115-0.115c0.032-0.021-0.026-0.1-0.038-0.222
		c0.367-0.369,0.639-0.572,1.175-0.796c0.139-0.057,0.428-0.224,0.607-0.114h0.075c-0.024,0.374-0.877,1.523-1.137,1.705v0.109
		c0.697-0.18,1.162-1.573,1.629-2.081c-0.012-0.087-0.01-0.106-0.038-0.15L74.163,85.444z"/>
	<path opacity="0.88" enable-background="new    " d="M92.723,46.964c0.082,0.209,0.243,0.556,0.417,0.683
		c0.082,0.06,0.126,0.037,0.188,0.113c1.255,0.107,1.764-2.052,1.253-3.296c-0.092-0.215-0.495-0.847-0.872-0.605h-0.077
		c0.025-0.065,0.011-0.036,0.039-0.077c-0.001-0.179-0.021-0.239-0.074-0.34c-0.076-0.012-0.148-0.024-0.228-0.036
		c-0.037,0.029-0.009,0.014-0.074,0.036c0.026,0.23,0.106,0.236,0.114,0.492C92.796,44.492,92.273,45.83,92.723,46.964z
		 M93.136,44.957c0.085-0.204,0.254-0.336,0.38-0.493c0.078-0.015,0.071-0.009,0.111-0.039c0.288,0,0.369,0.056,0.531,0.153
		c0.288,0.681,0.331,1.869-0.149,2.388c-0.073,0.08-0.219,0.11-0.301,0.188C92.914,47.093,92.85,45.646,93.136,44.957z"/>
	<path opacity="0.88" enable-background="new    " d="M95.826,46.737v-0.605c-0.093-0.434-0.056-1.011-0.149-1.438
		c-0.181-0.844-0.021-1.844-0.34-2.538c-0.188-0.046-0.376-0.081-0.642-0.077c-0.1,0.101-0.172,0.15-0.152,0.267
		c0.079,0.343,0.523,0.413,0.644,0.757c0.015,0.165,0.024,0.329,0.038,0.493c0.129,0.537,0.106,1.231,0.226,1.781v0.454
		c0.061,0.276,0.153,0.991,0.075,1.213c-0.133,0.392-0.56,0.746-0.83,1.022c-0.722,0.722-1.57,1.641-2.844,1.778
		c-0.023,0.065-0.01,0.037-0.039,0.077c0.021,0.473,0.456,0.379,0.759,0.568c0.076-0.014,0.151-0.026,0.226-0.04
		c0.117-0.07,0.184-0.231,0.265-0.341c0.192-0.25,0.54-0.383,0.72-0.643h0.038c0.002,1.154,0.026,2.451,0.038,3.561h0.112
		c0.26-1.123,0.241-2.5,0.228-3.867c0.499-0.465,0.816-1.139,1.326-1.589v-0.075h0.039c0.006,1.198,0.035,2.422,0.035,3.635
		c0,0.389-0.098,1.319,0,1.479v0.227h0.077c0.101-0.407,0.127-0.979,0.226-1.438v-0.645c0.113-0.511,0.111-1.496,0.002-2.009
		C95.767,48.107,95.955,47.33,95.826,46.737z"/>
	<path opacity="0.88" enable-background="new    " d="M71.133,88.247c-0.225,0.2-0.772,0.22-1.021,0.417h-0.039
		c0.1-0.143,0.278-0.204,0.38-0.339c0.072-0.1,0.103-0.217,0.188-0.302c-0.018-0.078-0.01-0.072-0.037-0.112v-0.077
		c-1.106-0.202-2.952,0.751-3.522,1.252c-0.149,0.129-0.237,0.322-0.38,0.457c0.003,0.105,0.015,0.161,0.037,0.226
		c0.672,0.045,1.93-0.366,2.081-0.907c0.03-0.024,0.012-0.002,0-0.039v-0.075c-0.458-0.025-1.076,0.071-1.36,0.339h-0.038
		c0.249-0.378,1.171-0.714,1.664-0.871c0.165-0.051,0.527-0.142,0.685-0.037c0.035,0.015,0.072,0.024,0.112,0.037
		c-0.09,0.38-0.63,0.802-0.985,0.908V89.2c0.581-0.135,1.113-0.398,1.627-0.606c0.353-0.144,0.753-0.181,1.062-0.379
		c0.219-0.143,0.965-1.155,1.021-1.439C71.732,86.907,71.661,87.771,71.133,88.247z M68.14,89.004v0.114
		c-0.071,0.047-0.123,0.149-0.189,0.188c-0.196,0.115-0.458,0.103-0.646,0.228c-0.086-0.01-0.104-0.008-0.149-0.039h-0.037
		C67.221,89.172,67.846,89.024,68.14,89.004z"/>
	<path opacity="0.88" enable-background="new    " d="M75.567,59.873c-0.427-0.262-0.485-1.603-0.645-2.195
		c-0.313-1.163-0.463-2.383-0.796-3.561c-0.213-0.755-0.501-1.537-0.416-2.463c0.133-0.133,0.221-0.307,0.379-0.417
		c0.213-0.147,0.556-0.22,0.72-0.417c0.026-0.049-0.018-0.123-0.039-0.228c-0.439,0.07-0.841,0.335-1.212,0.491
		c-0.759,0.324-1.501,0.515-2.272,0.834c-0.241,0.1-0.492,0.27-0.797,0.301v0.229c0.026,0.014,0.052,0.024,0.076,0.038
		c0.04,0.043,0.989-0.374,1.288-0.112c0.341,0.119,0.298,0.564,0.492,0.834c-0.058,0.588-0.644,1.491-0.873,2.008
		c-0.556,1.269-1.12,2.48-1.738,3.672c-0.237,0.457-0.52,1.276-0.834,1.628v0.037c-0.206-0.283-0.189-1.006-0.3-1.399
		c-0.338-1.182-0.554-2.479-0.91-3.635c-0.065-0.221-0.292-1.225-0.149-1.439c0.049-0.522,0.787-0.751,1.211-0.909
		c-0.011-0.088-0.022-0.178-0.037-0.266c-0.671,0.102-1.367,0.459-1.97,0.683c-0.569,0.214-1.091,0.3-1.667,0.494
		c-0.285,0.098-0.608,0.263-0.943,0.301v0.039h-0.04c0.016,0.107,0.024,0.164,0.075,0.227c0.155,0.103,0.986-0.337,1.327-0.073
		c0.533,0.181,0.548,1.029,0.72,1.589c0.46,1.512,0.696,3.186,1.137,4.736c0.109,0.387,0.374,1.613,0.113,1.931
		c-0.141,0.421-0.847,0.589-1.25,0.758c0.014,0.076,0.022,0.152,0.034,0.227c0.583-0.087,1.112-0.356,1.634-0.535
		c1.018-0.34,1.979-0.623,2.958-0.985c-0.017-0.088-0.026-0.179-0.04-0.264c-0.418,0.111-0.74,0.237-1.327,0.227
		c-0.076-0.066-0.149-0.128-0.224-0.191c-0.065-0.201-0.13-0.403-0.191-0.604c0.041-0.478,0.654-1.36,0.871-1.781
		c0.645-1.237,1.208-2.488,1.776-3.786c0.22-0.496,0.722-1.221,0.797-1.777c0.177,0.106,0.127,0.42,0.188,0.644
		c0.129,0.454,0.202,0.938,0.34,1.438c0.27,0.958,0.374,1.986,0.645,2.993c0.1,0.37,0.25,1.003,0.076,1.401
		c-0.171,0.387-0.805,0.644-1.212,0.794c0.016,0.081,0.034,0.176,0.077,0.229c0.003,0.007,0.866-0.276,1.018-0.34
		c1.057-0.45,2.14-0.918,3.217-1.326c-0.015-0.09-0.022-0.18-0.037-0.262C76.549,59.754,75.936,60.103,75.567,59.873z"/>
	<path opacity="0.88" enable-background="new    " d="M58.063,17.571c0.18,0.09,0.18,0.318,0.267,0.493
		c0.177,0.354,0.418,0.784,0.53,1.175v0.303c0.088,0.241,0.379,0.271,0.57,0.417c0.149-0.021,0.205-0.059,0.301-0.114
		c-0.063-0.72-0.503-1.317-0.757-1.894c-0.077-0.18-0.198-0.433-0.227-0.605c-0.02-0.105,0.061-0.163,0-0.265
		c-0.049-0.118-0.068-0.082-0.148-0.152c-0.058-0.038-0.03-0.016,0-0.075c0.064-0.138,0.203-0.274,0.263-0.417
		c0.127-0.299,0.121-0.552,0.379-0.719c-0.038-0.393-0.611-0.438-1.06-0.416c-0.055,0.039-0.149,0.061-0.23,0.073
		c0.049,0.099,0.079,0.119,0.191,0.15c0.108,1.111-0.67,2.13-1.177,2.803c-0.198,0.267-0.532,0.437-0.718,0.723H56.21v0.035
		C56.712,19.004,57.809,17.96,58.063,17.571z"/>
	<path opacity="0.88" enable-background="new    " d="M50.529,18.105c0.19,0.063,0.379,0.125,0.571,0.188
		c0.152,0.002,0.313-0.002,0.413-0.037c-0.009-0.627-0.349-0.875-0.567-1.288c-0.108-0.211-0.169-0.5-0.341-0.645
		c0.066-0.23,0.696-0.294,0.946-0.378c0.615-0.202,1.313-0.404,1.934-0.606c0.292-0.095,0.636-0.074,0.871-0.226
		c0.14,0.014,0.211,0.027,0.266,0.111c0.136,0.204,0.248,1.598,0.149,2.009c-0.382,1.592-0.858,2.836-1.854,3.788v0.038
		c0.368-0.06,0.543-0.418,0.793-0.605c1.007-0.761,1.688-1.888,2.047-3.297c0.211-0.827-0.135-1.64,0.19-2.347H55.91
		c-0.071-0.18-1.036-0.529-1.33-0.531c-0.156,0.169-0.381,0.398-0.606,0.492c-0.342,0.146-0.803,0.105-1.097,0.302
		c-0.274-0.022-0.484-0.546-0.302-0.757c-0.01-0.086-0.008-0.107-0.038-0.151c-0.229-0.184-0.813-0.163-1.213-0.151
		c-0.129,0.119-0.242,0.144-0.302,0.343h-0.037c-0.021,0.072,0.019,0.048,0.037,0.074c0.024,0.016,0.155-0.006,0.227,0.039
		c0.43,0.045,0.419,0.541,0.645,0.795c-0.024,0.066-0.009,0.039-0.039,0.076c-0.148,0.118-1.245,0.434-1.477,0.494
		c-0.178,0.044-0.396-0.065-0.529-0.078c-0.321-0.027-0.606,0.153-0.797,0.265c0.104,0.151,0.416,0.114,0.531,0.265
		C49.986,16.822,50.166,17.511,50.529,18.105z"/>
	<path opacity="0.88" enable-background="new    " d="M54.012,34.084c0.759,0.229,1.302,1.088,1.739,1.667
		c0.192,0.255,0.491,0.462,0.683,0.719c0.813,1.08,1.73,2.055,2.537,3.145c0.313,0.423,0.738,0.79,1.021,1.249
		c0.171-0.004,0.206-0.024,0.303-0.077c0.204-0.889,0.317-1.785,0.57-2.689c0.114-0.414,0.257-0.901,0.3-1.362
		c0.313,0.111,0.567,0.58,0.76,0.834c0.592,0.786,1.427,1.438,1.969,2.271c0.157-0.007,0.175-0.025,0.266-0.075
		c0.171-1.285,0.333-2.573,0.498-3.86v-0.379c0.171-0.767,0.131-1.689,0.3-2.461c0.23-1.042-0.097-2.056,0.948-2.312
		c0.02-0.102,0.055-0.141,0-0.228c-0.023-0.064-0.009-0.037-0.039-0.076c-0.041-0.029-0.036-0.022-0.111-0.037
		c-0.291,0.213-1.082,0.357-1.477,0.454c-0.3,0.073-0.611,0.01-0.834,0.151c-0.036,0.013-0.074,0.025-0.113,0.037
		c0.014,0.077,0.023,0.154,0.039,0.228c0.432,0.142,0.83-0.029,1.021,0.341c0.124,0.242,0.106,1.107,0.037,1.44
		c-0.24,1.113-0.141,2.384-0.379,3.483c-0.083,0.381,0.021,1.121-0.15,1.401v0.076c-0.23-0.109-0.38-0.408-0.53-0.606
		c-0.339-0.446-0.838-0.804-1.177-1.249c-0.203-0.269-0.418-0.59-0.682-0.797c0.035-0.729,0.248-1.494,0.42-2.157
		c0.126-0.5,0.129-0.963,0.378-1.328c0.142-0.207,0.483-0.339,0.719-0.454c-0.003-0.095-0.005-0.14-0.038-0.189
		c-0.014-0.038-0.022-0.076-0.035-0.113c-0.521,0.077-0.961,0.325-1.441,0.454c-0.435,0.118-0.872,0.088-1.214,0.264
		c0.011,0.088,0.009,0.107,0.039,0.151c0.014,0.038,0.022,0.077,0.038,0.113c1.331-0.075,1.129,0.649,0.872,1.668
		c-0.081,0.312-0.027,0.741-0.19,0.984v0.074H61.02c-0.273-0.414-0.683-0.814-1.021-1.174c-0.14-0.126-0.279-0.252-0.416-0.378
		c-0.101-0.132-0.153-0.299-0.268-0.418c0.024-0.417,0.364-0.525,0.684-0.643c-0.015-0.175-0.05-0.197-0.113-0.304
		c-0.987,0.145-1.845,0.699-2.954,0.757v0.039h-0.038c0.004,0.096,0.004,0.141,0.038,0.189v0.075
		c0.217,0.038,0.54-0.051,0.796,0.038c0.408,0.145,0.774,0.621,1.021,0.948c0.371,0.491,0.953,0.909,1.323,1.4
		c0.196,0.262,0.416,0.606,0.684,0.797c-0.036,0.665-0.22,1.366-0.379,1.97c-0.083,0.309-0.033,0.703-0.188,0.945
		c-0.024,0.066-0.01,0.037-0.039,0.076c-0.361-0.687-1.058-1.21-1.515-1.818c-0.879-1.168-1.855-2.22-2.765-3.37
		c0-0.161,0.009-0.257,0.075-0.341c0.07-0.22,0.344-0.424,0.606-0.455c0.015-0.116,0.031-0.129-0.037-0.229
		c-0.016-0.036-0.025-0.074-0.039-0.113c-0.77,0.118-1.457,0.476-2.195,0.684c-0.384,0.107-0.889,0.055-1.177,0.265
		c-0.038,0.012-0.076,0.025-0.112,0.038c0.02,0.146,0.059,0.168,0.112,0.266C53.402,34.078,53.721,33.995,54.012,34.084z"/>
	<path opacity="0.88" enable-background="new    " d="M89.877,30.07c-0.087,1.316-1.215,1.734-2.421,1.212
		c-0.862-0.369-1.548-1.185-2.087-1.895c-0.18-0.237-0.46-0.437-0.643-0.683c-0.17-0.229-0.292-0.484-0.494-0.683v-0.037h-0.074
		c0.103,0.408,0.339,0.78,0.492,1.138c0.641,1.473,1.456,2.502,2.691,3.37c0.582,0.41,1.552,1.057,2.388,0.455
		c1.46-1.052,0.749-4.967,0.15-6.438c-0.157-0.387-0.281-0.69-0.455-1.021c-0.286-0.55-0.586-1.354-1.4-1.363
		c-0.202,0.171-0.417,0.308-0.532,0.566c-0.743,1.687,0.784,3.588,1.478,4.509C89.215,29.525,89.503,29.882,89.877,30.07z
		 M88.366,25.943h0.188c0.372,0.386,0.715,0.754,0.948,1.286c0.124,0.286,0.146,0.771,0.3,1.023
		c-0.021,0.067-0.005,0.038-0.034,0.077c-0.099,0.097-0.516-0.4-0.607-0.492C88.738,27.413,87.889,26.669,88.366,25.943z"/>
	<path opacity="0.88" enable-background="new    " d="M13.071,26.284c0.591-0.608,1.838-2.126,1.819-3.257
		c-0.061-0.059-0.114-0.155-0.152-0.227c-0.236-0.057-0.539-0.082-0.872-0.076c-0.085,0.307-0.262,0.567-0.378,0.832
		c-0.256,0.587-0.486,1.173-0.72,1.744c-0.197,0.475-0.319,1.239-0.605,1.626v0.076C12.561,26.932,12.832,26.53,13.071,26.284z
		 M13.223,25.074c0.226-0.537,0.38-1.071,0.643-1.552c0.146,0.002,0.257,0.014,0.341,0.075c0.091,0.049,0.026-0.019,0.075,0.076
		c0.078,0.188-0.17,0.488-0.263,0.642c-0.173,0.286-0.269,0.567-0.456,0.834c-0.17,0.244-0.44,0.434-0.605,0.682h-0.039
		C12.967,25.544,13.122,25.31,13.223,25.074z"/>
	<path opacity="0.88" enable-background="new    " d="M9.586,27.039h0.529c0.088-0.113,0.176-0.228,0.266-0.341
		c0.316-0.334,0.734-0.673,0.983-1.06h0.114v0.528c-0.29,0.261-0.739,0.665-0.871,1.062v0.302c-0.194,0.842,0.214,1.272,0.947,1.212
		c0.479-0.444,1.268-0.812,1.175-1.702c-0.042-0.033-0.004,0.005-0.039-0.036c-0.077,0.017-0.072,0.008-0.112,0.037
		c-0.275,0.143-0.739,1.365-1.289,1.022c-0.278,0.002-0.305-0.052-0.455-0.153c0.02-0.358,0.631-1.017,0.874-1.173
		c0.03-0.578,0.18-1.198,0.113-1.741c-0.039-0.014-0.076-0.026-0.113-0.038c-0.134-0.043-0.239,0.161-0.342,0.266
		c-0.276,0.278-0.62,0.57-0.834,0.908c-0.321-0.003-1.354-0.013-1.554,0.114H8.865c0.095-0.245,0.824-1.051,0.606-1.402
		c-0.013-0.039-0.023-0.076-0.039-0.114c-0.69,0.002-1.523,1.231-1.742,1.741c-0.11,0.256-0.11,0.55-0.264,0.758v0.039
		c0.517-0.063,1.036-0.127,1.552-0.191C9.175,27.033,9.446,27.126,9.586,27.039z M8.298,26.322H8.07
		c0.104-0.418,0.514-0.895,1.022-0.91v0.189c-0.177,0.229-0.354,0.454-0.529,0.683C8.455,26.282,8.357,26.282,8.298,26.322z"/>
	<path opacity="0.88" enable-background="new    " d="M28.106,51.774v0.037c0.061,0.084,0.059,0.253,0.113,0.341
		c-0.023,0.063-0.009,0.037-0.038,0.076c-0.157,0.105-0.387,0.058-0.605,0.111c-0.451,0.113-1.901,0.466-2.234,0.151
		c-0.213-0.069-0.354-0.348-0.38-0.604c-0.095,0.004-0.14,0.004-0.188,0.037h-0.078c0.14,0.733,0.278,1.464,0.416,2.197h0.039v0.039
		c1.326-0.229,2.651-0.458,3.978-0.683c-0.19-0.697-0.378-1.39-0.568-2.087c-0.106-0.16-0.447-0.141-0.644-0.223
		c-0.332-0.138-0.742-0.442-0.946-0.719c-0.609-0.838-1.28-2.822-0.833-4.317c0.363-1.213,1.151-2.036,2.424-2.351
		c0.645-0.154,1.337,0.061,1.743,0.268c1.157,0.595,1.651,1.441,2.006,2.84c0.46,1.807-0.125,3.465-1.325,4.015
		c0.074,0.73,0.151,1.464,0.227,2.196c0.426-0.012,0.816-0.101,1.176-0.19c0.602-0.147,1.216-0.168,1.779-0.301
		c0.413-0.1,1.008-0.016,1.326-0.228c0.074-0.162-0.238-1.292-0.303-1.554c-0.055-0.219-0.008-0.441-0.113-0.605v-0.076
		c-0.088,0.012-0.177,0.024-0.265,0.038c0.017,1.144-0.799,0.987-1.705,1.213c-0.453,0.114-1.004,0.258-1.515,0.264
		c0-0.162,0-0.328,0-0.492c0.043-0.079,0.707-0.369,0.83-0.456c0.441-0.305,0.892-0.79,1.177-1.247
		c0.193-0.313,0.351-0.732,0.453-1.101c0.131-0.468,0.147-1.12,0.04-1.591c-0.077-0.324-0.047-0.577-0.152-0.871
		c-0.409-1.136-1.266-1.966-2.348-2.424c-0.492-0.206-1.047-0.215-1.628-0.34c-0.516-0.112-1.444,0.117-1.819,0.227
		c-1.823,0.538-3.061,1.417-3.637,3.182c-0.227,0.697-0.156,1.662,0.038,2.311C24.993,50.352,26.243,51.748,28.106,51.774z"/>
	<path opacity="0.88" enable-background="new    " d="M33.523,72.15c-0.076,0.327,0.729,1.059,0.984,1.252
		c0.127,0.095,0.298,0.313,0.492,0.225c0.1-0.008,0.131-0.018,0.19-0.038c0.044-0.101,0.11-0.229,0.038-0.339
		C35.207,72.773,33.974,72.241,33.523,72.15z"/>
	<path opacity="0.88" enable-background="new    " d="M42.313,73.967c0.039-0.016,0.078-0.024,0.113-0.041
		c-0.019-0.495-0.966-0.705-1.479-0.563c-0.228,0.063-0.491,0.204-0.719,0.264c-0.177,0.014-0.354,0.026-0.531,0.037
		c-0.06-0.616-0.363-1.095-0.378-1.74c0.568-0.012,1.283-0.087,1.664-0.303c-0.007-0.19-0.043-0.19-0.111-0.3
		c-0.435-0.102-1.179-0.121-1.517,0.111c-0.096-0.004-0.141-0.004-0.188-0.037c-0.212-0.269-0.11-0.815-0.303-1.098v-0.151
		c0.408-0.088,1.074-0.161,1.287-0.455c0.03-0.039,0.014-0.01,0.038-0.074c-0.034-0.034-0.049-0.065-0.075-0.114
		c-0.593-0.149-0.85-0.047-1.363,0.151c-0.159-0.513,0.033-0.918-0.491-1.06c0.112-0.195,0.484-0.187,0.719-0.265
		c0.365-0.121,0.782-0.283,1.099-0.454c0.025-0.065,0.008-0.039,0.039-0.076c-0.021-0.191-0.074-0.186-0.153-0.303
		c-0.546-0.042-0.982,0.011-1.288,0.303h-0.073c0.045-0.282,0.222-0.688,0.378-0.908c0.106-0.155,0.305-0.135,0.38-0.341h0.037
		v-0.041c-0.077-0.099-0.151-0.202-0.228-0.3c-0.178-0.125-0.435-0.138-0.604-0.268c-0.252-0.004-0.493-0.003-0.644,0.075
		c0.021,0.146,0.085,0.237,0.113,0.341c0.105,0.391-0.271,1.599-0.418,1.779c-0.116,0.148-1.484,0.644-1.855,0.531
		c-0.088-0.027-0.345-0.157-0.416-0.228c-0.03-0.038-0.015-0.008-0.038-0.074c0.536-0.504,0.924-1.63,1.667-1.855
		c0.013-0.062,0.025-0.126,0.039-0.188c-0.186-0.191-1.086-1.137-1.554-0.834c-0.037,0.014-0.075,0.022-0.111,0.037
		c0,0.323,0.161,0.567,0.074,0.908c-0.174,0.681-0.562,1.489-0.909,2.048c-0.209,0.334-0.663,0.697-0.682,1.176
		c0.618-0.061,0.768-0.699,1.248-0.873c0.141,0.129,0.278,0.256,0.417,0.38c0.198,0.297,0.161,0.744,0.265,1.135
		c0.177,0.819,0.355,1.641,0.53,2.461c0.024,0.406,0.051,0.809,0.077,1.215c0.101,0.364,0.401,1.002,0.794,1.09
		c0.063,0.031,0.116,0.021,0.188-0.038c0.133-0.108,0.061-0.299,0.153-0.454c0.212-0.152,0.588-0.114,0.872-0.19
		c0.773-0.204,1.678-0.19,2.537-0.38C41.317,73.913,41.99,74.155,42.313,73.967z M36.174,69.046c0.061-0.103,1.065-0.262,1.176-0.19
		c0.401,0.187,0.259,0.778,0.492,1.137c-0.08,0.187-1.003,0.467-1.288,0.492C36.503,70.083,36.436,69.263,36.174,69.046z
		 M36.668,70.902c0.289-0.026,1.039-0.275,1.249-0.418h0.038c0.072,0.345,0.114,0.936,0.304,1.213
		c-0.137,0.333-0.972,0.304-1.288,0.494C36.838,72.112,36.664,71.161,36.668,70.902z M37.349,74.082
		c-0.079-0.54-0.337-1.016-0.341-1.591c0.582-0.011,0.881-0.245,1.361-0.304c0.03,0.353,0.248,1.348,0.418,1.59
		c0.001,0.023,0.001,0.053,0.001,0.077C38.332,73.953,37.856,74.084,37.349,74.082z"/>
	<path opacity="0.88" enable-background="new    " d="M6.326,46.241c0.08,0.021,0.136,0.035,0.189,0.076
		c0.747-0.051,0.902-0.65,1.287-1.061c0.327,0.785,0.082,2.157-0.643,2.349c-0.311,0.215-0.768-0.063-0.946-0.227
		c-0.62-0.574-0.752-1.447-0.983-2.424c-0.079-0.329,0.031-0.998-0.112-1.252c0.005-0.386,0.088-1.084-0.115-1.286v-0.038
		l-0.075,0.002c-0.013,2.361-0.137,6.001,1.705,6.516c0.669,0.184,1.04-0.26,1.249-0.57c0.753-1.119,0.542-3.299-0.189-4.24
		c-0.325,0.032-0.791,0.805-0.946,1.059c-0.078-0.015-0.071-0.011-0.113-0.038c-0.088-0.039-0.082-0.063-0.152-0.113
		c-0.058-0.894,0.121-1.726,0.152-2.576c0.999,0.098,1.857,0.666,2.878,0.72c-0.001-0.178,0-0.416,0.073-0.529
		c-0.009-0.088-0.007-0.106-0.038-0.153c-0.139-0.11-0.908-0.292-1.136-0.301v-0.038H8.373c0.139-1.125-0.179-1.993-0.948-2.312
		c-0.43-0.076-0.858-0.153-1.288-0.229c-0.22-0.08-0.327-0.255-0.492-0.378c-0.056-0.364-0.127-0.772,0.152-0.985
		c-0.021-0.137-0.031-0.161-0.114-0.228v-0.038H5.645c-0.127,0.219-0.234,0.473-0.303,0.759c-0.223,0.941,0.297,1.74,0.872,1.932
		c0.379,0.062,0.757,0.127,1.137,0.189c0.301,0.115,0.434,0.362,0.642,0.568c-0.008,0.49-0.479,0.544-0.871,0.416
		c-0.612-0.198-1.265-0.338-1.893-0.566c-0.165-0.062-0.318-0.162-0.531-0.19c-0.026,0.239-0.052,0.479-0.076,0.719
		c0.53,0.164,1.062,0.328,1.591,0.493C6.19,43.604,5.662,45.208,6.326,46.241z"/>
	<path opacity="0.88" enable-background="new    " d="M11.06,67.152c0.231,0.121,0.28,0.653,0.378,0.91
		c0.203,0.534,0.5,1.233,0.987,1.477v0.039h0.079c-0.063-0.428-0.304-0.813-0.455-1.176c-0.335-0.818-0.597-1.679-0.872-2.501
		c-0.159-0.48-0.267-0.948-0.416-1.402c-0.077-0.235-0.06-0.503-0.191-0.683v-0.113c0.258,0.093,0.65,0.083,0.872,0.229h0.192
		c-0.043-0.197-0.083-0.528-0.192-0.684c-0.114-0.186-0.849-0.188-1.059-0.338c-0.299-0.234-0.581-0.907-0.797-1.251
		c-0.536-0.849-1.246-1.754-2.045-2.349c-0.425-0.314-0.72-0.643-1.479-0.644c-0.088,0.063-0.177,0.126-0.264,0.189
		c-0.171,0.755,0.133,2.151,0.566,2.499v0.074c-0.182-0.049-0.376-0.145-0.492-0.263H5.835c0.007,0.217,0.049,0.499,0.15,0.644
		c0.045,0.186,0.348,0.338,0.531,0.379c0.237,0.992,0.566,2.01,0.909,2.919c0.276,0.726,0.417,1.417,0.718,2.118
		c0.149,0.342,0.501,0.591,0.607,0.948h0.112c-0.087-0.32-0.261-0.619-0.378-0.909c-0.348-0.837-0.625-1.727-0.911-2.572
		c-0.186-0.559-0.313-1.098-0.492-1.631c-0.066-0.2-0.047-0.408-0.15-0.569v-0.037c0.257,0.047,0.411,0.181,0.605,0.265
		c0.441,0.191,0.865,0.265,1.326,0.455c0.338,0.14,0.763,0.332,1.176,0.379c0.047,0.344,0.243,1.245,0.417,1.479v0.112
		c-0.576-0.395-0.565-0.957-1.593-0.871c-0.051,0.061-0.122,0.112-0.188,0.151c-0.095,0.234-0.1,0.619,0,0.87
		c0.246,0.618,1.026,1.906,1.667,2.086C10.588,67.558,10.948,67.341,11.06,67.152z M10.078,62.833
		c-0.4-0.028-0.74-0.185-1.061-0.301c-0.855-0.318-1.63-0.589-2.385-0.949c-0.092-0.343-0.728-1.573-0.38-2.005
		c0.025-0.039,0.051-0.078,0.076-0.115c0.077-0.018,0.073-0.01,0.113-0.037c1.168,0.139,2.338,1.559,2.916,2.348
		c0.226,0.307,0.411,0.764,0.72,0.984V62.833z M9.095,65.673c0.004-0.372,0.145-0.373,0.301-0.568
		c0.088-0.007,0.107-0.007,0.151-0.035c0.587,0.004,0.721,0.267,1.063,0.493c0.055,0.223,0.09,0.32,0.074,0.564
		c-0.114,0.141-0.227,0.279-0.34,0.417c-0.102,0.075-0.213,0.104-0.303,0.19C9.39,66.715,9.367,66.077,9.095,65.673z"/>
	<path opacity="0.88" enable-background="new    " d="M76.132,16.136c0.438,0.589,0.931,1.198,1.74,1.402
		c0.915,0.228,1.361-0.847,1.705-1.253c0.354-0.416,1.132-0.516,1.401-1.061c0.1-0.197,0.033-0.588-0.037-0.757
		c-0.173-0.407-1.02-1.552-1.364-1.778c0.022-0.229,0.129-0.237,0.225-0.379c0.237,0.115,0.323,0.45,0.494,0.643
		c0.217,0.248,0.522,0.38,0.758,0.606c0.361,0.003,0.577-0.09,0.756-0.266h0.039c-0.09-0.254-0.423-0.429-0.604-0.606
		c-0.396-0.397-0.698-0.896-1.099-1.287v-0.038c-0.196,0.069-0.861,0.658-0.984,0.834c-0.239-0.092-0.374-0.35-0.568-0.491
		c-0.646-0.487-1.256-1.118-2.384-1.099c-0.141,0.109-0.352,0.113-0.532,0.188c-0.507,0.221-1.036,0.659-1.249,1.175
		c-0.237,0.577,0.005,1.428,0.188,1.855C74.992,14.69,75.603,15.422,76.132,16.136z M75.942,10.869
		c0.644,0.006,0.952,0.439,1.327,0.722c0.925,0.693,1.702,1.556,2.385,2.499c0.307,0.419,0.723,0.658,0.718,1.399
		c-0.116,0.111-0.149,0.215-0.341,0.265c-0.037,0.03-0.01,0.015-0.074,0.039c-0.536-0.892-1.309-1.638-1.931-2.463
		c-0.203-0.27-0.518-0.488-0.72-0.757c-0.347-0.459-0.759-0.827-1.138-1.249c-0.108-0.126-0.161-0.246-0.299-0.342
		C75.901,10.899,75.899,10.928,75.942,10.869z M74.995,11.4h0.149c0.19,0.285,0.516,0.484,0.722,0.757
		c0.565,0.751,1.257,1.407,1.816,2.159c0.344,0.464,0.727,0.899,1.059,1.363c0.171,0.238,0.302,0.54,0.532,0.719
		c-0.038,0.173-0.111,0.253-0.186,0.381c-0.67,0.156-1.003-0.281-1.363-0.646c-0.897-0.895-1.503-2.003-2.199-3.105
		C75.288,12.649,74.678,11.944,74.995,11.4z"/>
</g>
</svg>
